<svg xmlns="http://www.w3.org/2000/svg" width="500" height="80" viewBox="0 0 500 80"><rect width="500" height="80" fill="#fff" opacity="0"/><g transform="translate(-578 -2356.837)"><g transform="translate(624 2356.837)"><g fill="#fff" stroke="#d8d8d8" stroke-width="1"><circle cx="22" cy="22" r="22" stroke="none"/><circle cx="22" cy="22" r="21.5" fill="none"/></g><path d="M11.334,21.281c0-1.046,3.516-4.049,6.74-4.043,2.369,0,4.6,2.463,4.6,5.358,0,6.536-11.334,13.712-11.334,13.712S0,29.131,0,22.6a5.22,5.22,0,0,1,5.028-5.354C7.98,17.3,11.334,20.259,11.334,21.281Z" transform="translate(11 -2.815)" fill="#ff6d6d"/></g></g><g transform="translate(-624 -2577.837)"><g transform="translate(624 2577.837)" fill="#fff" stroke="#d8d8d8" stroke-width="1"><circle cx="22" cy="22" r="22" stroke="none"/><circle cx="22" cy="22" r="21.5" fill="none"/></g><path d="M11.334,21.281c0-1.046,3.516-4.049,6.74-4.043,2.369,0,4.6,2.463,4.6,5.358,0,6.536-11.334,13.712-11.334,13.712S0,29.131,0,22.6a5.22,5.22,0,0,1,5.028-5.354C7.98,17.3,11.334,20.259,11.334,21.281Z" transform="translate(635 2575.021)" fill="#c8c8c8"/></g><g transform="translate(-85 -104)"><rect width="50" height="50" transform="translate(177 104)" fill="none"/><path d="M9.16,17.31-1.551,8.273,9.16-.764,10.45.764l-8.9,7.509,8.9,7.509Z" transform="translate(206.45 137.31) rotate(180)"/></g><g transform="translate(-4821 -1435)"><rect width="38" height="38" rx="18" transform="translate(4965 1435)" fill="#332424"/><line x2="15.5" y2="15.5" transform="translate(4976.524 1446.5)" fill="none" stroke="#fff" stroke-width="2"/><line x1="15.5" y2="15.5" transform="translate(4976.524 1446.5)" fill="none" stroke="#fff" stroke-width="2"/></g></svg>