<svg id="spr_layout" xmlns="http://www.w3.org/2000/svg" xmlns:xlink="http://www.w3.org/1999/xlink" width="500" height="283" viewBox="0 0 500 283">
  <defs>
    <clipPath id="clip-path">
      <rect id="사각형_70486" data-name="사각형 70486" width="29.25" height="34" fill="none"/>
    </clipPath>
    <clipPath id="clip-path-2">
      <rect id="사각형_70484" data-name="사각형 70484" width="34.135" height="34.644" fill="none"/>
    </clipPath>
    <clipPath id="clip-path-3">
      <rect id="사각형_70487" data-name="사각형 70487" width="36" height="34" fill="none"/>
    </clipPath>
    <clipPath id="clip-path-5">
      <rect id="사각형_70483" data-name="사각형 70483" width="33.814" height="33.955" fill="none"/>
    </clipPath>
    <clipPath id="clip-path-6">
      <rect id="사각형_70481" data-name="사각형 70481" width="40" height="31.718" fill="none"/>
    </clipPath>
    <clipPath id="clip-path-7">
      <rect id="사각형_70480" data-name="사각형 70480" width="33.226" height="32.182" fill="none"/>
    </clipPath>
    <clipPath id="clip-path-8">
      <rect id="사각형_70485" data-name="사각형 70485" width="34" height="34" fill="none"/>
    </clipPath>
    <filter id="사각형_69708" x="113" y="191" width="92" height="92" filterUnits="userSpaceOnUse">
      <feOffset dy="2" input="SourceAlpha"/>
      <feGaussianBlur stdDeviation="5" result="blur"/>
      <feFlood flood-opacity="0.161"/>
      <feComposite operator="in" in2="blur"/>
      <feComposite in="SourceGraphic"/>
    </filter>
  </defs>
  <rect id="사각형_2" data-name="사각형 2" width="500" height="140" fill="none"/>
  <g id="그룹_5" data-name="그룹 5" transform="translate(-2)">
    <g id="그룹_71459" data-name="그룹 71459" transform="translate(73 84)">
      <path id="패스_634" data-name="패스 634" d="M23.155,164.668a9.254,9.254,0,1,0-16.8,5.34l6.236,9.739a1.617,1.617,0,0,0,2.629,0l6.236-9.739a9.2,9.2,0,0,0,1.7-5.34Z" transform="translate(8.611 -155.414)"/>
      <path id="패스_640" data-name="패스 640" d="M17.885,165.068a3.25,3.25,0,1,1-3.25-3.25A3.25,3.25,0,0,1,17.885,165.068Z" transform="translate(7.877 -155.183)" fill="#fff"/>
      <path id="패스_69516" data-name="패스 69516" d="M0-1.8,14.275-4.667V13.788L0,16.659Z" transform="translate(0 29.674)"/>
      <path id="패스_69517" data-name="패스 69517" d="M15.007-1.8,0-4.667V13.788l15.007,2.871Z" transform="translate(16.471 29.674)"/>
      <path id="패스_69518" data-name="패스 69518" d="M0-1.8,14.64-4.667V13.788L0,16.659Z" transform="translate(33.674 29.674)"/>
    </g>
    <rect id="사각형_70498" data-name="사각형 70498" width="62" height="62" transform="translate(66 76)" fill="none"/>
  </g>
  <g id="그룹_4" data-name="그룹 4">
    <g id="그룹_70926" data-name="그룹 70926" transform="translate(10.5 86)">
      <path id="빼기_99" data-name="빼기 99" d="M7.321,23.955h0L0,20.146,20.492,0,40.983,20.146l-7.321,3.808L20.492,10.885,7.322,23.954Z"/>
      <rect id="사각형_70011" data-name="사각형 70011" width="7.984" height="23.056" transform="translate(32.999 20.192)"/>
      <rect id="사각형_70372" data-name="사각형 70372" width="7.984" height="13.628" transform="translate(16.5 29.621)"/>
      <rect id="사각형_70012" data-name="사각형 70012" width="7.984" height="23.056" transform="translate(0 20.192)"/>
    </g>
    <rect id="사각형_70497" data-name="사각형 70497" width="62" height="62" transform="translate(0 76)" fill="none"/>
  </g>
  <g id="그룹_8" data-name="그룹 8" transform="translate(-5)">
    <g id="그룹_71462" data-name="그룹 71462" transform="translate(10728 1609)">
      <rect id="사각형_70003" data-name="사각형 70003" width="15" height="13" transform="translate(-10453 -1517)"/>
      <rect id="사각형_70381" data-name="사각형 70381" width="15" height="13" transform="translate(-10453 -1499)"/>
      <rect id="사각형_70379" data-name="사각형 70379" width="15" height="13" transform="translate(-10434 -1517)"/>
      <rect id="사각형_70380" data-name="사각형 70380" width="15" height="13" transform="translate(-10434 -1499)"/>
    </g>
    <rect id="사각형_70501" data-name="사각형 70501" width="62" height="62" transform="translate(261 76)" fill="none"/>
    <g id="그룹_11" data-name="그룹 11" transform="translate(130 -194)">
      <rect id="사각형_70494" data-name="사각형 70494" width="63" height="63" transform="translate(191 270)" fill="none"/>
      <g id="그룹_71708" data-name="그룹 71708" transform="translate(9988.082 -3069.868)">
        <path id="패스_70790" data-name="패스 70790" d="M3.937,32.067a2.982,2.982,0,0,1-2.553-1.421,2.691,2.691,0,0,1,.494-3.376l2.666-2.424v-9.8C4.545,7.566,10.792,1,17.914,1S31.283,7.566,31.283,15.052v9.8l2.666,2.424a2.691,2.691,0,0,1,.494,3.376,2.982,2.982,0,0,1-2.553,1.421Z" transform="translate(-9783.481 3349.668)"/>
        <path id="패스_70792" data-name="패스 70792" d="M23.667,26.84a7.394,7.394,0,1,1-14.788,0Z" transform="translate(-9781.696 3357.883)"/>
      </g>
    </g>
  </g>
  <g id="그룹_7" data-name="그룹 7" transform="translate(-3)">
    <g id="그룹_70924" data-name="그룹 70924" transform="translate(210.847 84.961)">
      <ellipse id="타원_1722" data-name="타원 1722" cx="8" cy="8.5" rx="8" ry="8.5" transform="translate(7.653 0.039)"/>
      <rect id="사각형_70008" data-name="사각형 70008" width="29" height="26" rx="13" transform="translate(0.653 19.039)"/>
      <rect id="사각형_70009" data-name="사각형 70009" width="29" height="15" transform="translate(0.653 30.039)"/>
    </g>
    <rect id="사각형_70500" data-name="사각형 70500" width="62" height="62" transform="translate(195 76)" fill="none"/>
  </g>
  <g id="그룹_71767" data-name="그룹 71767" transform="translate(-377 -31)">
    <g id="그룹_10" data-name="그룹 10" transform="translate(625.807 42.018)">
      <circle id="타원_1" data-name="타원 1" cx="27" cy="27" r="27" transform="translate(0.194 -0.018)" fill="#2ca8ec"/>
      <g id="그룹_9" data-name="그룹 9" transform="translate(14.378 14.378)">
        <g id="타원_2" data-name="타원 2" transform="translate(0 0)" fill="none" stroke="#fff" stroke-width="3">
          <circle cx="10.925" cy="10.925" r="10.925" stroke="none"/>
          <circle cx="10.925" cy="10.925" r="9.425" fill="none"/>
        </g>
        <path id="패스_24" data-name="패스 24" d="M-86.5-280.667l8.5,8.5" transform="translate(102.888 298.332)" fill="none" stroke="#fff" stroke-width="3"/>
      </g>
    </g>
    <rect id="사각형_70504" data-name="사각형 70504" width="76" height="76" transform="translate(615 31)" fill="none"/>
  </g>
  <g id="그룹_71768" data-name="그룹 71768" transform="translate(-219 -31)">
    <g id="그룹_4-2" data-name="그룹 4" transform="translate(543 42)">
      <g id="그룹_5-2" data-name="그룹 5">
        <path id="패스_12" data-name="패스 12" d="M32.123,163.427A26.86,26.86,0,0,0,9.549,204.838L0,222.539l19.453-8.57a26.858,26.858,0,1,0,12.67-50.541" transform="translate(0 -163.427)" fill="#ff5e5e"/>
        <path id="패스_13" data-name="패스 13" d="M131.842,361.728a1.375,1.375,0,0,1-.555-1.109,1.355,1.355,0,0,1,1.377-1.358,1.417,1.417,0,0,1,.842.268,5.646,5.646,0,0,0,3.424,1.2c1.2,0,1.932-.478,1.932-1.262v-.038c0-.746-.459-1.128-2.7-1.7-2.7-.689-4.437-1.435-4.437-4.093V353.6c0-2.429,1.951-4.036,4.686-4.036a7.772,7.772,0,0,1,4.246,1.186,1.363,1.363,0,0,1-.727,2.525,1.414,1.414,0,0,1-.746-.21,5.571,5.571,0,0,0-2.812-.9c-1.129,0-1.721.517-1.721,1.167v.038c0,.88.574,1.167,2.888,1.76,2.716.708,4.246,1.683,4.246,4.017v.038c0,2.659-2.027,4.151-4.916,4.151a8.642,8.642,0,0,1-5.03-1.607" transform="translate(-117.841 -329.369)" fill="#fff"/>
        <path id="패스_14" data-name="패스 14" d="M205.255,356.285v-.038a7.118,7.118,0,0,1,14.23-.038v.038a7.118,7.118,0,0,1-14.23.038m11.151,0v-.038a4.067,4.067,0,0,0-4.055-4.208,4,4,0,0,0-4.017,4.169v.038a4.068,4.068,0,0,0,4.055,4.208,4,4,0,0,0,4.017-4.17" transform="translate(-180.062 -329.167)" fill="#fff"/>
        <path id="패스_15" data-name="패스 15" d="M300.935,361.728a1.375,1.375,0,0,1-.555-1.109,1.355,1.355,0,0,1,1.377-1.358,1.417,1.417,0,0,1,.842.268,5.646,5.646,0,0,0,3.424,1.2c1.2,0,1.932-.478,1.932-1.262v-.038c0-.746-.459-1.128-2.7-1.7-2.7-.689-4.437-1.435-4.437-4.093V353.6c0-2.429,1.951-4.036,4.686-4.036a7.773,7.773,0,0,1,4.246,1.186,1.363,1.363,0,0,1-.727,2.525,1.414,1.414,0,0,1-.746-.21,5.571,5.571,0,0,0-2.812-.9c-1.128,0-1.721.517-1.721,1.167v.038c0,.88.574,1.167,2.888,1.76,2.716.708,4.246,1.683,4.246,4.017v.038c0,2.659-2.027,4.151-4.916,4.151a8.642,8.642,0,0,1-5.03-1.607" transform="translate(-260.08 -329.369)" fill="#fff"/>
      </g>
    </g>
    <rect id="사각형_70505" data-name="사각형 70505" width="76" height="76" transform="translate(535 31)" fill="none"/>
  </g>
  <g id="그룹_6" data-name="그룹 6" transform="translate(-2)">
    <path id="합치기_115" data-name="합치기 115" d="M3.659,44.5A1.549,1.549,0,0,1,2.11,42.946V41.4H43.89v1.549A1.549,1.549,0,0,1,42.341,44.5ZM0,40.621v-6.2A5.271,5.271,0,0,1,5.271,29.15h9.946c1.982-.435,5.062-1.625,5.062-4.828,0-4.19-2.246-5.311-3.7-6.728a9.881,9.881,0,1,1,13-.405c-1.384,1.64-3.782,2.553-3.782,7.133,0,3.2,3.08,4.394,5.062,4.828h9.873A5.272,5.272,0,0,1,46,34.42v6.2Z" transform="translate(138.5 85)"/>
    <rect id="사각형_70499" data-name="사각형 70499" width="62" height="62" transform="translate(130 76)" fill="none"/>
  </g>
  <g id="그룹_2" data-name="그룹 2">
    <rect id="사각형_1" data-name="사각형 1" width="236" height="56" fill="none"/>
    <g id="그룹_71744" data-name="그룹 71744" transform="translate(-133.744 -440.257)">
      <path id="패스_68195" data-name="패스 68195" d="M2486.12,4694.6c0,.6,1.355.239,7.736,1.875,3.589,1.037,3.629,3.988,3.629,3.988l1.116,6.062s-6.141.2-6.978.278-2.432.2-2.512,1.355a9.553,9.553,0,0,0,.6,3.67,3.887,3.887,0,0,0,3.749,2.034c2.352-.121,7.735-.16,7.735-.16s1.755,0,1.635,1.675,0,15.312,0,15.312l-14.116-.359.758-9.172s.358-3.229-2.872-3.229-10.447.319-10.567.319-1.355.118-1.077.559,5.264.637,8.654,1.953,3.47,7.417,3.549,8.334a6.66,6.66,0,0,1,0,1.436l-7.935.319s-1.276.04-1.2,2.073.519,3.27,1.2,3.868a4.775,4.775,0,0,0,2.791.958c1.077.081,8.414,0,8.414,0a1.664,1.664,0,0,1,1.276,1.915c-.12,1.674,0,10.208,0,10.208h2.034V4738.9a1.227,1.227,0,0,1,1.116-1.158c1.077-.121,7.138-.159,9.132-.559a16.187,16.187,0,0,0,6.819-4.267c1.037-1.4.838-2.073-.6-2.073s-5.184-.159-5.184-.159v-15.632s-.2-1.476,1.2-1.517,6.819.121,8.892-.279,5.424-2.791,6.46-4.026,1.675-2.672,0-2.711-21.614-.2-21.614-.2l.678-9.609s.08-1.516-.678-2.114a3.49,3.49,0,0,0-2.273-.679c-.677,0-10.926.16-10.926.16S2486.12,4694,2486.12,4694.6Z" transform="translate(-2340.772 -4253.656)" fill="#2ca8ec"/>
      <path id="강릉바우길" d="M20.709-31.278v3a15.228,15.228,0,0,1-.41,2.866,10.823,10.823,0,0,1-.955,2.516,13.419,13.419,0,0,1-1.56,2.32,14.445,14.445,0,0,1-2.067,2.009,18.459,18.459,0,0,1-2.574,1.716A20.334,20.334,0,0,1,10.1-15.483a23.418,23.418,0,0,1-3.51,1.073,37.765,37.765,0,0,1-3.822.644L.858-18.6a42.041,42.041,0,0,0,4.5-1.248,35.4,35.4,0,0,0,3.764-1.521,11.457,11.457,0,0,0,2.711-1.736,5.67,5.67,0,0,0,1.54-2.125H2.145v-6.045Zm14.937,4.29v6.747a1.8,1.8,0,0,0-.253.02,2.071,2.071,0,0,1-.292.02h-.585l-.7.078q-.351.039-.663.078-.2.039-.37.058a2.51,2.51,0,0,0-.332.059,2.631,2.631,0,0,1-.312.059,2.236,2.236,0,0,1-.273.02q-.234.078-.37.136t-.253.1v5.655H24.453V-31.59h6.786v5.5a4.418,4.418,0,0,1,.7-.351q.39-.156.9-.312a8.649,8.649,0,0,1,1.209-.175Q34.749-26.988,35.646-26.988ZM17.979-4.251q.936,0,1.7-.019t1.385-.1A7.705,7.705,0,0,0,22.113-4.5a7.364,7.364,0,0,0,.819-.215,3.144,3.144,0,0,0,.585-.253,1.389,1.389,0,0,0,.39-.332,1.087,1.087,0,0,0,.175-.37,1.7,1.7,0,0,0,.059-.449,1.351,1.351,0,0,0-.059-.39,1.72,1.72,0,0,0-.175-.39,2.556,2.556,0,0,0-.39-.312,2.456,2.456,0,0,0-.585-.273,5.436,5.436,0,0,0-.819-.2q-.468-.078-1.053-.195-.624-.039-1.385-.078T17.979-8Q17-8,16.224-7.956t-1.365.078q-.624.117-1.092.195a4.248,4.248,0,0,0-.78.2,2.456,2.456,0,0,0-.585.273,1.416,1.416,0,0,0-.351.312,1.72,1.72,0,0,0-.175.39,1.351,1.351,0,0,0-.059.39,1.7,1.7,0,0,0,.059.449,1.087,1.087,0,0,0,.175.37.962.962,0,0,0,.351.332,3.144,3.144,0,0,0,.585.253,5.4,5.4,0,0,0,.78.215,7.8,7.8,0,0,0,1.092.136,12.907,12.907,0,0,0,1.365.1Q17-4.251,17.979-4.251Zm0,5.226q-2.028,0-3.7-.137T11.31.468a15.529,15.529,0,0,1-2.437-.6A8.76,8.76,0,0,1,7.059-.975,6.935,6.935,0,0,1,5.674-1.989a3.468,3.468,0,0,1-.838-1.248,4.794,4.794,0,0,1-.507-1.346,7.279,7.279,0,0,1-.156-1.54,6.454,6.454,0,0,1,.156-1.4,5.422,5.422,0,0,1,.507-1.365,4.6,4.6,0,0,1,.877-1.189A7.62,7.62,0,0,1,7.1-11.154a10.044,10.044,0,0,1,1.833-.839,22.323,22.323,0,0,1,2.418-.683q1.287-.234,2.964-.39t3.666-.156q1.95,0,3.588.156t3,.39q1.287.312,2.359.683a11.156,11.156,0,0,1,1.892.839,9.062,9.062,0,0,1,1.365,1.073,5.227,5.227,0,0,1,.936,1.189,7.433,7.433,0,0,1,.487,1.365,5.77,5.77,0,0,1,.176,1.4,6.5,6.5,0,0,1-.176,1.54,6.357,6.357,0,0,1-.487,1.346,4.553,4.553,0,0,1-.917,1.248A7.43,7.43,0,0,1,28.86-.975a11.4,11.4,0,0,1-1.872.839,15.315,15.315,0,0,1-2.34.6Q23.283.7,21.626.839T17.979.975Zm51.6-12.051H37.323v-4.485H69.576ZM53.664.975Q51.441.975,49.647.9t-3.2-.273A20.289,20.289,0,0,1,43.836.2a12.341,12.341,0,0,1-1.95-.624A7.117,7.117,0,0,1,40.4-1.19a2.97,2.97,0,0,1-.9-.956A3.067,3.067,0,0,1,39-3.178a4.607,4.607,0,0,1-.156-1.229A4.1,4.1,0,0,1,39-5.538a4.115,4.115,0,0,1,.507-1.092,3.947,3.947,0,0,1,.9-.917,7.413,7.413,0,0,1,1.443-.838,13.707,13.707,0,0,1,1.95-.644q1.131-.292,2.613-.526,1.4-.2,3.218-.312t4.036-.117q2.145,0,3.958.117t3.3.312q1.4.234,2.535.526a15.607,15.607,0,0,1,1.989.644,8.57,8.57,0,0,1,1.424.838,4.629,4.629,0,0,1,.955.917,5.75,5.75,0,0,1,.488,1.092,3.674,3.674,0,0,1,.175,1.131,4.126,4.126,0,0,1-.175,1.229,3.976,3.976,0,0,1-.488,1.033,3.261,3.261,0,0,1-.975.956A9.324,9.324,0,0,1,65.4-.429,13.89,13.89,0,0,1,63.414.2a20.512,20.512,0,0,1-2.535.429Q59.4.819,57.6.9T53.664.975Zm0-4.485h2.008q.916,0,1.618-.039.7,0,1.248-.02a6.86,6.86,0,0,0,.975-.1,3.819,3.819,0,0,0,.624-.117,1.95,1.95,0,0,0,.468-.2.48.48,0,0,0,.215-.156.414.414,0,0,0,.1-.273.336.336,0,0,0-.078-.215,2.659,2.659,0,0,0-.2-.214q-.2-.039-.468-.117t-.663-.156q-.234,0-.468-.019t-.507-.019q-.273-.039-.565-.059t-.644-.058H55.653q-.429,0-.936-.02T53.664-5.3q-.585,0-1.092.019t-.975.02H50q-.39.039-.7.058t-.585.059q-.312,0-.546.019t-.39.019q-.429.078-.7.156t-.39.117a.826.826,0,0,0-.215.214.409.409,0,0,0-.058.215.6.6,0,0,0,.058.273.334.334,0,0,0,.254.156.893.893,0,0,0,.37.2,3.479,3.479,0,0,0,.683.117,6.031,6.031,0,0,0,.955.1q.566.02,1.268.02.7.039,1.6.039ZM39.039-26.286H61v-1.092H39.234V-31.59H67.626v9.516H45.669v1.131H68.211v4.212H39.039Zm45.435-4.992h6.435V-1.872H73.125V-31.278H79.56v8.931h4.914ZM79.56-16.5v8.775h4.914V-16.5Zm27.027-4.68v6.747q-.234,0-.507.019t-.585.058a5.026,5.026,0,0,0-.624.039,5.351,5.351,0,0,1-.663.039q-.663.117-1.267.234t-1.151.234V-.2H94.575v-31.4h7.215v11.115q.546-.156,1.151-.292t1.306-.253a5.839,5.839,0,0,0,.683-.039,5.211,5.211,0,0,1,.6-.039q.312-.039.566-.059T106.587-21.177Zm17.94,6.318a33.827,33.827,0,0,1-3.588-.175,18.778,18.778,0,0,1-2.925-.527,14.37,14.37,0,0,1-2.457-.78,8.963,8.963,0,0,1-1.911-1.092,8.452,8.452,0,0,1-1.424-1.267,5.551,5.551,0,0,1-.956-1.5,6.022,6.022,0,0,1-.565-1.58,8.451,8.451,0,0,1-.175-1.736,7.621,7.621,0,0,1,.175-1.6,7.427,7.427,0,0,1,.565-1.638,6.484,6.484,0,0,1,.956-1.5,10.311,10.311,0,0,1,1.424-1.384,11.1,11.1,0,0,1,1.911-1.151,18.3,18.3,0,0,1,2.457-.955,18.345,18.345,0,0,1,2.925-.6,27.737,27.737,0,0,1,3.588-.215,27.076,27.076,0,0,1,3.51.215,20.766,20.766,0,0,1,3,.6,20.149,20.149,0,0,1,2.379.955,12.645,12.645,0,0,1,1.95,1.151,9.455,9.455,0,0,1,1.4,1.384,10.15,10.15,0,0,1,1.014,1.5,10.089,10.089,0,0,1,.546,1.638,6.892,6.892,0,0,1,.195,1.6,7.638,7.638,0,0,1-.195,1.736,7.811,7.811,0,0,1-.546,1.58,8.005,8.005,0,0,1-1.014,1.5,7.828,7.828,0,0,1-1.4,1.267,10,10,0,0,1-1.95,1.092,15.012,15.012,0,0,1-2.379.78,21.12,21.12,0,0,1-3,.527A33.019,33.019,0,0,1,124.527-14.859Zm0-5.811a20.011,20.011,0,0,0,3.178-.215,5.952,5.952,0,0,0,2.086-.682,3.54,3.54,0,0,0,1.073-.955,2.017,2.017,0,0,0,.37-1.19,1.988,1.988,0,0,0-.37-1.131,3.85,3.85,0,0,0-1.073-1.014,6.914,6.914,0,0,0-2.086-.663,18.375,18.375,0,0,0-3.178-.234,18.929,18.929,0,0,0-3.257.234,5.366,5.366,0,0,0-2.008.7,3.58,3.58,0,0,0-1.092.995,1.971,1.971,0,0,0-.351,1.111,2.1,2.1,0,0,0,.351,1.19,3.21,3.21,0,0,0,1.092.955,5.165,5.165,0,0,0,2.008.682A20.615,20.615,0,0,0,124.527-20.67ZM120.471-.156v-6.4H108.3V-12.6h32.253v6.045H128v6.4Zm42.588-31.317v2.613a9.879,9.879,0,0,1-1.365,4.758,10.455,10.455,0,0,1-3.627,3.51,22.336,22.336,0,0,1-5.869,2.457,42.546,42.546,0,0,1-7.859,1.287l-1.4-4.563q1.17-.117,2.32-.312t2.281-.468q1.053-.234,2.028-.488t1.872-.566q.819-.273,1.56-.6t1.365-.682a8.552,8.552,0,0,0,1.014-.7,4.194,4.194,0,0,0,.741-.78H144.1v-5.46Zm3.354,14.586v-14.7H173.2v14.7Zm-21.138,6.708h21.294v-1.092h-21.1v-4.446H173.2v9.789H151.9v1.209h21.684V-.273H145.275Z" transform="translate(194 486)" fill="#2ca8ec"/>
    </g>
  </g>
  <g id="그룹_71745" data-name="그룹 71745" transform="translate(-197 -918)">
    <g id="그룹_71733" data-name="그룹 71733" transform="translate(277.496 1135.517)" clip-path="url(#clip-path)">
      <path id="패스_70930" data-name="패스 70930" d="M14.625,27.643c.064.041.058.023,0-.041-.059.064-.065.083,0,.041" fill="#e6e6e6"/>
      <path id="패스_70931" data-name="패스 70931" d="M14.625,27.643c.064.041.058.023,0-.041C14.566,27.666,14.56,27.685,14.625,27.643Z" fill="none" stroke="#222" stroke-linejoin="round" stroke-width="2"/>
      <path id="패스_70932" data-name="패스 70932" d="M14.625,1a10.1,10.1,0,0,0-10,10.2,13.141,13.141,0,0,0,.8,4.527C6.909,20.509,14,26.916,14.625,27.6c.623-.688,7.707-7.088,9.191-11.855a13.153,13.153,0,0,0,.809-4.551,10.1,10.1,0,0,0-10-10.2m0,14.669a5,5,0,1,1,5-5,5,5,0,0,1-5,5" fill="#e6e6e6"/>
      <path id="패스_70933" data-name="패스 70933" d="M14.625,1a10.1,10.1,0,0,0-10,10.2,13.141,13.141,0,0,0,.8,4.527C6.909,20.509,14,26.916,14.625,27.6c.623-.688,7.707-7.088,9.191-11.855a13.153,13.153,0,0,0,.809-4.551A10.1,10.1,0,0,0,14.625,1Zm0,14.669a5,5,0,1,1,5-5,5,5,0,0,1-5,5Z" fill="none" stroke="#222" stroke-linejoin="round" stroke-width="2"/>
      <path id="패스_70934" data-name="패스 70934" d="M18.385,24h6.377l3.488,9H1l3.488-9h6.6" fill="none" stroke="#222" stroke-linejoin="round" stroke-width="2"/>
    </g>
    <path id="패스_70938" data-name="패스 70938" d="M0,0H62V62H0Z" transform="translate(261 1122)" fill="none"/>
  </g>
  <g id="그룹_71746" data-name="그룹 71746" transform="translate(-261 -794)">
    <g id="그룹_71730" data-name="그룹 71730" transform="translate(274.515 1011.506)">
      <g id="그룹_71729" data-name="그룹 71729" clip-path="url(#clip-path-2)">
        <path id="패스_70922" data-name="패스 70922" d="M25.136,1a8.079,8.079,0,0,0-8,8.157,10.489,10.489,0,0,0,.641,3.622c1.195,3.857,6.877,9.138,7.292,9.642.433-.5,6.223-5.781,7.42-9.623a10.524,10.524,0,0,0,.647-3.641,8.08,8.08,0,0,0-8-8.157m.031,11.4a3.2,3.2,0,1,1,3.2-3.2,3.2,3.2,0,0,1-3.2,3.2" fill="#e6e6e6"/>
        <path id="패스_70923" data-name="패스 70923" d="M25.136,1a8.079,8.079,0,0,0-8,8.157,10.489,10.489,0,0,0,.641,3.622c1.195,3.857,6.877,9.138,7.292,9.642.433-.5,6.223-5.781,7.42-9.623a10.524,10.524,0,0,0,.647-3.641,8.08,8.08,0,0,0-8-8.157Zm.031,11.4a3.2,3.2,0,1,1,3.2-3.2,3.2,3.2,0,0,1-3.2,3.2Z" fill="none" stroke="#222" stroke-linejoin="round" stroke-width="2"/>
        <path id="패스_70924" data-name="패스 70924" d="M25.068,22.454c.047.03.036.01,0-.033-.037.043-.049.064,0,.033" fill="#e6e6e6"/>
        <path id="패스_70925" data-name="패스 70925" d="M25.068,22.454c.047.03.036.01,0-.033C25.032,22.464,25.02,22.485,25.068,22.454Z" fill="none" stroke="#222" stroke-linejoin="round" stroke-width="2"/>
        <line id="선_1798" data-name="선 1798" x2="8.647" transform="translate(22.937 30.657)" fill="none" stroke="#222" stroke-linejoin="round" stroke-width="2"/>
        <line id="선_1799" data-name="선 1799" x2="4.27" y2="4.661" transform="translate(11.833 22.62)" fill="none" stroke="#222" stroke-linejoin="round" stroke-width="2"/>
        <line id="선_1800" data-name="선 1800" x2="5.417" transform="translate(0 19.507)" fill="none" stroke="#222" stroke-linejoin="round" stroke-width="2"/>
        <line id="선_1801" data-name="선 1801" x1="3.583" y2="4.75" transform="translate(4 22.954)" fill="none" stroke="#222" stroke-linejoin="round" stroke-width="2"/>
        <line id="선_1802" data-name="선 1802" x2="3.583" y2="6.75" transform="translate(4.333 8.87)" fill="none" stroke="#222" stroke-linejoin="round" stroke-width="2"/>
        <path id="패스_70926" data-name="패스 70926" d="M13.168,19.5a3.691,3.691,0,1,1-3.69-3.69,3.691,3.691,0,0,1,3.69,3.69Z" fill="none" stroke="#222" stroke-linejoin="round" stroke-width="2"/>
        <path id="패스_70927" data-name="패스 70927" d="M22.75,29.954a3.69,3.69,0,1,1-3.69-3.69,3.69,3.69,0,0,1,3.69,3.69Z" fill="none" stroke="#222" stroke-linejoin="round" stroke-width="2"/>
        <line id="선_1803" data-name="선 1803" y1="4.411" x2="3.715" transform="translate(21.353 22.454)" fill="none" stroke="#222" stroke-linejoin="round" stroke-width="2"/>
      </g>
    </g>
    <rect id="사각형_70491" data-name="사각형 70491" width="62" height="62" transform="translate(261 998)" fill="none"/>
  </g>
  <g id="그룹_71747" data-name="그룹 71747" transform="translate(121 -734)">
    <g id="그룹_71716" data-name="그룹 71716" transform="translate(277.485 888.483)">
      <path id="패스_70790-2" data-name="패스 70790" d="M3.431,26.715a2.469,2.469,0,0,1-2.113-1.176,2.227,2.227,0,0,1,.409-2.794l2.207-2.006V12.631C3.934,6.435,9.1,1,15,1S26.066,6.435,26.066,12.631v8.108l2.207,2.006a2.227,2.227,0,0,1,.409,2.794,2.469,2.469,0,0,1-2.113,1.176Z" transform="translate(-0.5)" fill="none" stroke="#222" stroke-linejoin="round" stroke-width="2"/>
      <path id="패스_70791" data-name="패스 70791" d="M21.12,26.84a6.12,6.12,0,0,1-12.24,0Z" transform="translate(-0.88)" fill="#e6e6e6"/>
      <path id="패스_70792-2" data-name="패스 70792" d="M21.12,26.84a6.12,6.12,0,0,1-12.24,0Z" transform="translate(-0.38)" fill="none" stroke="#222" stroke-linejoin="round" stroke-width="2"/>
      <rect id="사각형_70440" data-name="사각형 70440" width="30" height="34" fill="none"/>
    </g>
    <rect id="사각형_70491-2" data-name="사각형 70491" width="62" height="62" transform="translate(261 874)" fill="none"/>
  </g>
  <g id="그룹_71748" data-name="그룹 71748" transform="translate(57 -610)">
    <g id="그룹_71739" data-name="그룹 71739" transform="translate(274.481 764.483)">
      <g id="그룹_71736" data-name="그룹 71736">
        <g id="그룹_71735" data-name="그룹 71735" clip-path="url(#clip-path-3)">
          <path id="패스_70935" data-name="패스 70935" d="M35,26.1H1L7.038,1H28.962Z" fill="none" stroke="#222" stroke-linejoin="round" stroke-width="2"/>
          <line id="선_1805" data-name="선 1805" y2="13.997" transform="translate(18 1)" fill="none" stroke="#222" stroke-linejoin="round" stroke-width="2" stroke-dasharray="4 4"/>
        </g>
      </g>
      <path id="패스_70936" data-name="패스 70936" d="M18,30.313,10.556,33,18,17.184,25.444,33Z" fill="#e6e6e6"/>
      <g id="그룹_71738" data-name="그룹 71738">
        <g id="그룹_71737" data-name="그룹 71737" clip-path="url(#clip-path-3)">
          <path id="패스_70937" data-name="패스 70937" d="M18,30.313,10.556,33,18,17.184,25.444,33Z" fill="none" stroke="#222" stroke-linejoin="round" stroke-width="2"/>
        </g>
      </g>
    </g>
    <rect id="사각형_70491-3" data-name="사각형 70491" width="62" height="62" transform="translate(261 750)" fill="none"/>
  </g>
  <g id="그룹_71749" data-name="그룹 71749" transform="translate(-5 -486)">
    <g id="그룹_71728" data-name="그룹 71728" transform="translate(275.486 640.484)">
      <g id="그룹_71727" data-name="그룹 71727" clip-path="url(#clip-path-5)">
        <path id="패스_70919" data-name="패스 70919" d="M1,23.406s10.5,7.811,20.5-1.435c4.66-4.307,7.083-6.8,10.811-4.869" fill="none" stroke="#222" stroke-linejoin="round" stroke-width="2"/>
        <path id="패스_70920" data-name="패스 70920" d="M9.311.955S4.636,17.191,19.532,22.849c5.681,2.158,10.391,4.9,9.861,9.808" fill="none" stroke="#222" stroke-linejoin="round" stroke-width="2" stroke-dasharray="4 4"/>
        <rect id="사각형_70482" data-name="사각형 70482" width="31.814" height="31.955" transform="translate(1 1)" fill="none" stroke="#222" stroke-linejoin="round" stroke-width="2"/>
        <path id="패스_70921" data-name="패스 70921" d="M.938,5.743c3.335,6.886,14.517,10.706,19.946,5.492,5.654-5.43,9.693-4.119,12.054-1.373" fill="none" stroke="#222" stroke-linejoin="round" stroke-width="2"/>
      </g>
    </g>
    <rect id="사각형_70491-4" data-name="사각형 70491" width="62" height="62" transform="translate(261 626)" fill="none"/>
  </g>
  <g id="그룹_71753" data-name="그룹 71753" transform="translate(-261 10)">
    <g id="그룹_71726" data-name="그룹 71726" transform="translate(272 145)">
      <g id="그룹_71725" data-name="그룹 71725" clip-path="url(#clip-path-6)">
        <path id="패스_70914" data-name="패스 70914" d="M9,29.981c.047.03.036.011,0-.03-.036.041-.048.061,0,.03" fill="#e6e6e6"/>
        <path id="패스_70915" data-name="패스 70915" d="M9,29.981c.047.03.036.011,0-.03C8.964,29.992,8.952,30.012,9,29.981Z" fill="none" stroke="#222" stroke-linejoin="round" stroke-width="2"/>
        <path id="패스_70916" data-name="패스 70916" d="M9,8.666a8.079,8.079,0,0,0-8,8.157,10.493,10.493,0,0,0,.641,3.622C2.836,24.3,8.575,29.465,9,29.95c.425-.485,6.157-5.644,7.354-9.486A10.524,10.524,0,0,0,17,16.823,8.08,8.08,0,0,0,9,8.666m.031,11.4a3.2,3.2,0,1,1,3.2-3.2,3.2,3.2,0,0,1-3.2,3.2" fill="#e6e6e6"/>
        <path id="패스_70917" data-name="패스 70917" d="M9,8.666a8.079,8.079,0,0,0-8,8.157,10.493,10.493,0,0,0,.641,3.622C2.836,24.3,8.575,29.465,9,29.95c.425-.485,6.157-5.644,7.354-9.486A10.524,10.524,0,0,0,17,16.823,8.08,8.08,0,0,0,9,8.666Zm.031,11.4a3.193,3.193,0,1,1,2.264-.935,3.2,3.2,0,0,1-2.264.935Z" fill="none" stroke="#222" stroke-linejoin="round" stroke-width="2"/>
        <path id="패스_70918" data-name="패스 70918" d="M37,1H32.635A7.452,7.452,0,0,0,25.2,8.429c0,4.087,2.344,7.43,6.43,7.43h.935c4.087,0,6.43,3.343,6.43,7.429a7.451,7.451,0,0,1-7.43,7.43H7.42" fill="none" stroke="#222" stroke-linejoin="round" stroke-width="2" stroke-dasharray="4 4"/>
      </g>
    </g>
    <rect id="사각형_70491-5" data-name="사각형 70491" width="62" height="62" transform="translate(261 130)" fill="none"/>
  </g>
  <g id="그룹_71751" data-name="그룹 71751" transform="translate(-133 -238)">
    <g id="그룹_71724" data-name="그룹 71724" transform="translate(275.496 392.513)">
      <g id="그룹_71723" data-name="그룹 71723" clip-path="url(#clip-path-7)">
        <path id="패스_70909" data-name="패스 70909" d="M16.441,7.376l8.086-3.484,7.7,3.742V31.183l-7.7-3.613-8.086,3.613L8.871,27.57,1,31.183V7.634L8.871,3.892Z" fill="none" stroke="#222" stroke-linejoin="round" stroke-width="2"/>
        <path id="패스_70910" data-name="패스 70910" d="M20.048,22.315c.047.03.036.011,0-.03-.036.041-.048.061,0,.03" fill="#e6e6e6"/>
        <path id="패스_70911" data-name="패스 70911" d="M20.048,22.315c.047.03.036.011,0-.03C20.012,22.326,20,22.346,20.048,22.315Z" fill="none" stroke="#222" stroke-linejoin="round" stroke-width="2"/>
        <path id="패스_70912" data-name="패스 70912" d="M20.049,1a8.079,8.079,0,0,0-8,8.157,10.493,10.493,0,0,0,.641,3.622c1.2,3.856,6.934,9.02,7.358,9.505C20.473,21.8,26.2,16.64,27.4,12.8a10.524,10.524,0,0,0,.647-3.641,8.08,8.08,0,0,0-8-8.157m.031,11.4a3.2,3.2,0,1,1,3.2-3.2,3.2,3.2,0,0,1-3.2,3.2" fill="#e6e6e6"/>
        <path id="패스_70913" data-name="패스 70913" d="M20.049,1a8.079,8.079,0,0,0-8,8.157,10.493,10.493,0,0,0,.641,3.622c1.2,3.856,6.934,9.02,7.358,9.505C20.473,21.8,26.2,16.64,27.4,12.8a10.524,10.524,0,0,0,.647-3.641A8.08,8.08,0,0,0,20.049,1Zm.031,11.4a3.2,3.2,0,1,1,3.2-3.2A3.2,3.2,0,0,1,20.08,12.4Z" fill="none" stroke="#222" stroke-linejoin="round" stroke-width="2"/>
      </g>
    </g>
    <rect id="사각형_70491-6" data-name="사각형 70491" width="62" height="62" transform="translate(261 378)" fill="none"/>
  </g>
  <g id="그룹_71752" data-name="그룹 71752" transform="translate(-197 -114)">
    <path id="합치기_115-2" data-name="합치기 115" d="M3.478,34.192a1.9,1.9,0,0,1-1.9-1.9V30.4H32.918v1.9a1.9,1.9,0,0,1-1.9,1.9ZM0,30.4V25.759a3.946,3.946,0,0,1,3.946-3.946h7.47c1.486-.326,3.79-1.217,3.79-3.613,0-3.129-1.678-3.972-2.77-5.029a7.41,7.41,0,1,1,9.739-.305c-1.038,1.225-2.833,1.911-2.833,5.334,0,2.4,2.307,3.287,3.79,3.613h7.414A3.946,3.946,0,0,1,34.5,25.759V30.4Z" transform="translate(274.5 267.5)" fill="none" stroke="#222" stroke-width="2"/>
    <rect id="사각형_70491-7" data-name="사각형 70491" width="62" height="62" transform="translate(261 254)" fill="none"/>
  </g>
  <g id="그룹_71750" data-name="그룹 71750" transform="translate(-69 -362)">
    <g id="그룹_71732" data-name="그룹 71732" transform="translate(275.483 516.483)">
      <g id="그룹_71731" data-name="그룹 71731" clip-path="url(#clip-path-8)">
        <circle id="타원_1770" data-name="타원 1770" cx="16" cy="16" r="16" transform="translate(1 1)" fill="none" stroke="#222" stroke-linejoin="round" stroke-width="2"/>
        <path id="패스_70928" data-name="패스 70928" d="M20.017,20.017,9.953,24.047l4.03-10.064,10.064-4.03Z" fill="#e6e6e6"/>
        <path id="패스_70929" data-name="패스 70929" d="M20.017,20.017,9.953,24.047l4.03-10.064,10.064-4.03Z" fill="none" stroke="#222" stroke-linejoin="round" stroke-width="2"/>
        <line id="선_1804" data-name="선 1804" x2="6.034" y2="6.034" transform="translate(13.983 13.983)" fill="none" stroke="#222" stroke-linejoin="round" stroke-width="2"/>
      </g>
    </g>
    <rect id="사각형_70491-8" data-name="사각형 70491" width="62" height="62" transform="translate(261 502)" fill="none"/>
  </g>
  <g id="그룹_71509" data-name="그룹 71509" transform="translate(-12338 -4234)">
    <g transform="matrix(1, 0, 0, 1, 12338, 4234)" filter="url(#사각형_69708)">
      <g id="사각형_69708-2" data-name="사각형 69708" transform="translate(128 204)" fill="#fff" stroke="#000" stroke-width="3">
        <rect width="62" height="62" rx="31" stroke="none"/>
        <rect x="1.5" y="1.5" width="59" height="59" rx="29.5" fill="none"/>
      </g>
    </g>
    <g id="그룹_71508" data-name="그룹 71508" transform="translate(12496.699 4449.566) rotate(45)">
      <line id="선_1789" data-name="선 1789" x2="27.098" transform="translate(0 13.549)" fill="none" stroke="#000" stroke-linecap="round" stroke-width="3"/>
      <line id="선_1790" data-name="선 1790" y2="27.098" transform="translate(13.549 0)" fill="none" stroke="#000" stroke-linecap="round" stroke-width="3"/>
    </g>
  </g>
  <g id="그룹_10-2" data-name="그룹 10" transform="translate(12 -99)">
    <rect id="사각형_70495" data-name="사각형 70495" width="52" height="52" transform="translate(180 303)" fill="none" opacity="0.56"/>
    <g id="그룹_71709" data-name="그룹 71709" transform="translate(10499.801 -2745.913)">
      <rect id="사각형_70475" data-name="사각형 70475" width="31.952" height="2.418" transform="translate(-10306 3085.307) rotate(-45)"/>
      <rect id="사각형_70476" data-name="사각형 70476" width="31.952" height="2.418" transform="translate(-10283.407 3087.017) rotate(-135)"/>
    </g>
  </g>
  <g id="그룹_73467" data-name="그룹 73467" transform="translate(220 161)">
    <path id="패스_69511" data-name="패스 69511" d="M2667.63-406.359l-19.479,16.434,19.479,16.434" transform="translate(-2605 461.5)" fill="none" stroke="#2ca8ec" stroke-width="4"/>
    <rect id="사각형_71118" data-name="사각형 71118" width="58" height="58" transform="translate(26 43)" fill="none"/>
  </g>
</svg>
