<svg xmlns="http://www.w3.org/2000/svg" width="98.007" height="98.025" viewBox="0 0 98.007 98.025">
  <g id="stamp09" transform="translate(-425.997 -223)">
    <path id="패스_82464" data-name="패스 82464" d="M406.53,157.681c0,.524,1.188.21,6.782,1.643a3.954,3.954,0,0,1,3.181,3.5l.979,5.314s-5.384.174-6.118.245-2.132.174-2.2,1.188a8.367,8.367,0,0,0,.524,3.218,3.407,3.407,0,0,0,3.287,1.783c2.063-.1,6.782-.14,6.782-.14s1.539,0,1.434,1.468,0,13.424,0,13.424L408.8,189.01l.665-8.042a2.448,2.448,0,0,0-2.032-2.8,2.475,2.475,0,0,0-.486-.028c-2.831,0-9.159.279-9.265.279s-1.188.1-.944.489,4.615.558,7.587,1.712,3.042,6.5,3.112,7.307a5.758,5.758,0,0,1,0,1.259l-6.957.28s-1.119.035-1.049,1.818.455,2.867,1.049,3.392a4.2,4.2,0,0,0,2.447.839c.944.069,7.377,0,7.377,0a1.46,1.46,0,0,1,1.119,1.679c-.1,1.468,0,8.949,0,8.949h1.784v-9.614a1.075,1.075,0,0,1,.979-1.014c.944-.106,6.258-.14,8.006-.49a14.188,14.188,0,0,0,5.978-3.741c.909-1.224.734-1.818-.524-1.818s-4.545-.14-4.545-.14v-13.7s-.175-1.294,1.049-1.329a67.912,67.912,0,0,0,7.8-.245,13.622,13.622,0,0,0,5.664-3.53c.908-1.084,1.468-2.342,0-2.377s-18.949-.175-18.949-.175l.594-8.425s.07-1.329-.594-1.854a3.055,3.055,0,0,0-1.993-.6c-.594,0-9.58.14-9.58.14s-.567-.075-.567.449" transform="translate(81.997 110)" fill="#fff"/>
    <path id="패스_82465" data-name="패스 82465" d="M392.981,211.025a48.983,48.983,0,1,1,19.073-3.849,49.013,49.013,0,0,1-19.073,3.849m0-93.677a44.676,44.676,0,1,0,44.676,44.677,44.676,44.676,0,0,0-44.676-44.677" transform="translate(81.997 110)" fill="#fff"/>
    <path id="패스_82466" data-name="패스 82466" d="M368.847,162.681c-5.779,0-9.145-3.3-9.145-11.456V148.3c0-8.159,3.366-11.491,9.145-11.491s9.179,3.332,9.179,11.491v2.924c0,8.158-3.4,11.456-9.179,11.456m3.366-14.38c0-5.372-1.462-6.664-3.366-6.664s-3.331,1.292-3.331,6.664v2.924c0,5.371,1.427,6.629,3.331,6.629s3.366-1.258,3.366-6.629Z" transform="translate(81.997 110)" fill="#fff"/>
    <path id="패스_82467" data-name="패스 82467" d="M388.7,162.681a28.95,28.95,0,0,1-6.7-.68c-.544-.135-.748-.34-.748-.748v-2.958c0-.475.238-.714.612-.714h.17a42.64,42.64,0,0,0,6.187.477c2.992,0,4.25-1.19,4.25-4.964v-.238a23.891,23.891,0,0,1-4.012.408c-4.589,0-8.4-1.938-8.4-7.581v-.238c0-5.167,3.128-8.635,8.975-8.635,5.474,0,9.111,3.229,9.111,9.995v5.2c0,7.684-3.671,10.675-9.451,10.675m3.774-15.876c0-4.624-1.462-5.575-3.434-5.575-1.87,0-3.3.884-3.3,4.215v.238c0,2.788,1.631,3.536,3.637,3.536a21.937,21.937,0,0,0,3.094-.341Z" transform="translate(81.997 110)" fill="#fff"/>
  </g>
</svg>
