<svg xmlns="http://www.w3.org/2000/svg" width="98.007" height="98.025" viewBox="0 0 98.007 98.025">
  <g id="stamp25" transform="translate(-539.997 -572)">
    <path id="패스_82424" data-name="패스 82424" d="M520.53,506.637c0,.524,1.188.21,6.782,1.643a3.954,3.954,0,0,1,3.181,3.5l.979,5.314s-5.384.174-6.118.245-2.132.174-2.2,1.188a8.368,8.368,0,0,0,.524,3.218,3.407,3.407,0,0,0,3.287,1.783c2.063-.1,6.782-.14,6.782-.14s1.539,0,1.434,1.468,0,13.424,0,13.424l-12.376-.314.665-8.042a2.448,2.448,0,0,0-2.032-2.8,2.4,2.4,0,0,0-.486-.028c-2.831,0-9.159.279-9.265.279s-1.188.1-.944.489,4.615.558,7.587,1.712,3.042,6.5,3.112,7.307a5.765,5.765,0,0,1,0,1.259l-6.957.28s-1.119.035-1.049,1.818.455,2.867,1.049,3.392a4.2,4.2,0,0,0,2.447.839c.944.069,7.377,0,7.377,0a1.46,1.46,0,0,1,1.119,1.679c-.1,1.468,0,8.949,0,8.949h1.784v-9.614a1.075,1.075,0,0,1,.979-1.014c.944-.106,6.258-.14,8.006-.49a14.188,14.188,0,0,0,5.978-3.741c.909-1.224.734-1.818-.524-1.818s-4.545-.14-4.545-.14v-13.7s-.175-1.294,1.049-1.329a67.923,67.923,0,0,0,7.8-.245,13.622,13.622,0,0,0,5.664-3.53c.908-1.084,1.468-2.342,0-2.377s-18.949-.175-18.949-.175l.594-8.425s.07-1.329-.594-1.854a3.055,3.055,0,0,0-1.993-.6c-.594,0-9.58.14-9.58.14s-.567-.075-.567.449" transform="translate(81.997 110)" fill="#fff"/>
    <path id="패스_82425" data-name="패스 82425" d="M506.981,560.025a48.983,48.983,0,1,1,19.073-3.849,49.013,49.013,0,0,1-19.073,3.849m0-93.677a44.676,44.676,0,1,0,44.676,44.677,44.676,44.676,0,0,0-44.676-44.677" transform="translate(81.997 110)" fill="#fff"/>
    <path id="패스_82426" data-name="패스 82426" d="M487.369,498.694l-2.89,1.937c-2.889,1.939-4.929,3.4-4.929,5.78v.137h10.743a.653.653,0,0,1,.68.645v3.5a.682.682,0,0,1-.68.68H475.164a.681.681,0,0,1-.679-.68v-3.468a10.654,10.654,0,0,1,4.623-8.636l3.128-2.209c2.957-2.074,3.467-2.345,3.467-3.944,0-1.462-.85-2.039-3.6-2.039-2.074,0-4.624.237-6.7.441h-.068a.625.625,0,0,1-.611-.679v-2.652c0-.339.306-.544.646-.646a27.078,27.078,0,0,1,7.241-1.054c6.255,0,8.669,2.142,8.669,6.493,0,2.754-1.394,4.692-3.91,6.392" transform="translate(81.997 110)" fill="#fff"/>
    <path id="패스_82427" data-name="패스 82427" d="M502.193,511.68a24.193,24.193,0,0,1-6.7-.985c-.34-.1-.68-.273-.68-.748v-2.686a.589.589,0,0,1,.612-.612h.068c2.141.238,4.861.408,6.119.408,3.23,0,3.91-1.36,3.91-3.706v-.272c0-2.278-1.054-3.128-4.828-3.128h-5.269a.486.486,0,0,1-.476-.475v-.034l1.054-12.681a.727.727,0,0,1,.68-.646H509.91a.654.654,0,0,1,.68.646v3.4a.654.654,0,0,1-.68.646h-9.247l-.408,4.692h.986c5.882,0,10.131,1.665,10.131,7.581v.272c0,5.372-3.23,8.329-9.179,8.329" transform="translate(81.997 110)" fill="#fff"/>
  </g>
</svg>
