<svg xmlns="http://www.w3.org/2000/svg" width="97" height="97" viewBox="0 0 97 97">
  <g id="그룹_71839" data-name="그룹 71839" transform="translate(0 0)">
    <path id="패스_68195" data-name="패스 68195" d="M2484.74,4694.511c0,.524,1.188.21,6.782,1.643a3.954,3.954,0,0,1,3.181,3.5l.979,5.314s-5.384.174-6.118.245-2.132.174-2.2,1.188a8.378,8.378,0,0,0,.524,3.218,3.407,3.407,0,0,0,3.287,1.783c2.063-.1,6.782-.14,6.782-.14s1.539,0,1.434,1.468,0,13.424,0,13.424l-12.376-.314.665-8.042a2.448,2.448,0,0,0-2.518-2.831c-2.831,0-9.159.28-9.265.28s-1.188.1-.944.489,4.615.558,7.587,1.712,3.042,6.5,3.112,7.307a5.806,5.806,0,0,1,0,1.259l-6.957.28s-1.119.035-1.049,1.818.455,2.867,1.049,3.392a4.191,4.191,0,0,0,2.447.839c.944.07,7.377,0,7.377,0a1.46,1.46,0,0,1,1.119,1.679c-.1,1.468,0,8.949,0,8.949h1.784v-9.614a1.076,1.076,0,0,1,.979-1.014c.944-.106,6.258-.14,8.006-.49a14.189,14.189,0,0,0,5.978-3.741c.909-1.223.734-1.818-.524-1.818s-4.545-.14-4.545-.14v-13.7s-.175-1.294,1.049-1.329a67.971,67.971,0,0,0,7.8-.245,13.624,13.624,0,0,0,5.664-3.53c.908-1.084,1.468-2.343,0-2.377s-18.949-.176-18.949-.176l.594-8.425s.07-1.329-.594-1.854a3.061,3.061,0,0,0-1.993-.595c-.594,0-9.58.14-9.58.14S2484.74,4693.987,2484.74,4694.511Z" transform="translate(-2423.191 -4650.942)" fill="#d8d8d8"/>
    <path id="빼기_110" data-name="빼기 110" d="M48.5,97A48.513,48.513,0,0,1,29.622,3.811,48.512,48.512,0,0,1,67.378,93.189,48.2,48.2,0,0,1,48.5,97Zm0-92.721A44.22,44.22,0,1,0,92.72,48.5,44.271,44.271,0,0,0,48.5,4.279Z" transform="translate(0 0)" fill="#d8d8d8"/>
    <text id="_11" data-name="11" transform="translate(35 49)" fill="#d8d8d8" font-size="34" font-family="NeoSans-Bold, NeoSans" font-weight="700" letter-spacing="-0.05em"><tspan x="-21" y="0">11</tspan></text>
  </g>
</svg>
