<svg xmlns="http://www.w3.org/2000/svg" width="98.007" height="98.025" viewBox="0 0 98.007 98.025">
  <g id="stamp18" transform="translate(-310.997 -455)">
    <path id="패스_82456" data-name="패스 82456" d="M291.531,389.637c0,.524,1.188.21,6.782,1.643a3.954,3.954,0,0,1,3.181,3.5l.979,5.314s-5.384.174-6.118.245-2.132.174-2.2,1.188a8.367,8.367,0,0,0,.524,3.218,3.407,3.407,0,0,0,3.287,1.783c2.063-.1,6.782-.14,6.782-.14s1.539,0,1.434,1.468,0,13.424,0,13.424l-12.376-.314.665-8.042a2.448,2.448,0,0,0-2.032-2.8,2.4,2.4,0,0,0-.486-.028c-2.831,0-9.159.279-9.265.279s-1.188.1-.944.489,4.615.558,7.587,1.712,3.042,6.5,3.112,7.307a5.758,5.758,0,0,1,0,1.259l-6.957.28s-1.119.035-1.049,1.818.455,2.867,1.049,3.392a4.2,4.2,0,0,0,2.447.839c.944.069,7.377,0,7.377,0a1.46,1.46,0,0,1,1.119,1.679c-.1,1.468,0,8.949,0,8.949h1.784v-9.614a1.075,1.075,0,0,1,.979-1.014c.944-.106,6.258-.14,8.006-.49a14.188,14.188,0,0,0,5.978-3.741c.909-1.224.734-1.818-.524-1.818s-4.545-.14-4.545-.14v-13.7s-.175-1.294,1.049-1.329a67.915,67.915,0,0,0,7.8-.245,13.622,13.622,0,0,0,5.664-3.53c.908-1.084,1.468-2.342,0-2.377s-18.949-.175-18.949-.175l.594-8.425s.07-1.329-.594-1.854a3.055,3.055,0,0,0-1.993-.6c-.594,0-9.58.14-9.58.14s-.567-.075-.567.449" transform="translate(81.997 110)" fill="#fff"/>
    <path id="패스_82457" data-name="패스 82457" d="M277.981,443.025a48.983,48.983,0,1,1,19.073-3.849,49.013,49.013,0,0,1-19.073,3.849m0-93.677a44.676,44.676,0,1,0,44.676,44.677,44.676,44.676,0,0,0-44.676-44.677" transform="translate(81.997 110)" fill="#fff"/>
    <path id="패스_82458" data-name="패스 82458" d="M256.669,394.374h-4.454a.681.681,0,0,1-.679-.68V374.928l-3.808,1.564a1.176,1.176,0,0,1-.408.1c-.238,0-.374-.17-.374-.443v-3.875a.469.469,0,0,1,.34-.476l5.541-2.549a1.779,1.779,0,0,1,.782-.137h3.06a.626.626,0,0,1,.646.647v23.933a.654.654,0,0,1-.646.68" transform="translate(81.997 110)" fill="#fff"/>
    <path id="패스_82459" data-name="패스 82459" d="M274.281,394.68h-.374c-5.337,0-9.009-2.618-9.009-7.547v-.443a6.717,6.717,0,0,1,2.89-5.439,5.842,5.842,0,0,1-2.754-5.1v-.373c0-4.759,3.5-6.969,8.873-6.969h.374c5.372,0,8.907,2.21,8.907,6.969v.373a5.875,5.875,0,0,1-2.787,5.1,6.718,6.718,0,0,1,2.889,5.439v.443c0,4.929-3.672,7.547-9.009,7.547m3.434-18.529c0-1.8-.952-3.092-3.434-3.092h-.374c-2.482,0-3.434,1.291-3.434,3.092v.171a2.756,2.756,0,0,0,3.094,2.957h1.054a2.756,2.756,0,0,0,3.094-2.957Zm-.034,10.472a2.966,2.966,0,0,0-3.06-3.264h-1.054a2.965,2.965,0,0,0-3.059,3.264v.34a3.167,3.167,0,0,0,3.4,3.433h.374a3.167,3.167,0,0,0,3.4-3.433Z" transform="translate(81.997 110)" fill="#fff"/>
  </g>
</svg>
