<svg xmlns="http://www.w3.org/2000/svg" width="98.007" height="98.025" viewBox="0 0 98.007 98.025">
  <g id="stamp01" transform="translate(-81.997 -110)">
    <path id="패스_82368" data-name="패스 82368" d="M62.53,44.594c0,.524,1.188.21,6.782,1.643a3.954,3.954,0,0,1,3.181,3.5l.979,5.314s-5.384.174-6.118.245-2.132.174-2.2,1.188a8.367,8.367,0,0,0,.524,3.218,3.407,3.407,0,0,0,3.287,1.783c2.063-.1,6.782-.14,6.782-.14s1.539,0,1.434,1.468,0,13.424,0,13.424l-12.376-.314.665-8.042a2.448,2.448,0,0,0-2.032-2.8,2.4,2.4,0,0,0-.486-.028c-2.831,0-9.159.279-9.265.279s-1.188.1-.944.489,4.615.558,7.587,1.712,3.042,6.5,3.112,7.307a5.761,5.761,0,0,1,0,1.259l-6.957.28s-1.119.035-1.049,1.818.455,2.867,1.049,3.392a4.2,4.2,0,0,0,2.447.839c.944.069,7.377,0,7.377,0A1.46,1.46,0,0,1,67.428,84.1c-.1,1.468,0,8.949,0,8.949h1.784V83.439a1.075,1.075,0,0,1,.979-1.014c.944-.106,6.258-.14,8.006-.49a14.188,14.188,0,0,0,5.978-3.741c.909-1.224.734-1.818-.524-1.818s-4.545-.14-4.545-.14v-13.7s-.175-1.294,1.049-1.329a67.911,67.911,0,0,0,7.8-.245,13.622,13.622,0,0,0,5.664-3.53c.908-1.084,1.468-2.342,0-2.377s-18.949-.175-18.949-.175l.594-8.425s.07-1.329-.594-1.854a3.055,3.055,0,0,0-1.993-.595c-.594,0-9.58.14-9.58.14s-.567-.075-.567.449" transform="translate(81.997 110)" fill="#fff"/>
    <path id="패스_82369" data-name="패스 82369" d="M48.981,98.025a48.983,48.983,0,1,1,19.073-3.849,49.013,49.013,0,0,1-19.073,3.849m0-93.677A44.676,44.676,0,1,0,93.657,49.025,44.676,44.676,0,0,0,48.981,4.348" transform="translate(81.997 110)" fill="#fff"/>
    <path id="패스_82370" data-name="패스 82370" d="M24.847,49.68c-5.779,0-9.145-3.3-9.145-11.456V35.3c0-8.159,3.366-11.491,9.145-11.491s9.179,3.332,9.179,11.491v2.924c0,8.158-3.4,11.456-9.179,11.456M28.213,35.3c0-5.372-1.462-6.664-3.366-6.664s-3.331,1.292-3.331,6.664v2.924c0,5.371,1.427,6.629,3.331,6.629s3.366-1.258,3.366-6.629Z" transform="translate(81.997 110)" fill="#fff"/>
    <path id="패스_82371" data-name="패스 82371" d="M47.9,49.374H43.445a.681.681,0,0,1-.679-.68V29.928l-3.808,1.564a1.176,1.176,0,0,1-.408.1c-.238,0-.374-.17-.374-.443V27.276a.469.469,0,0,1,.34-.476l5.541-2.549a1.779,1.779,0,0,1,.782-.137H47.9a.626.626,0,0,1,.646.647V48.694a.654.654,0,0,1-.646.68" transform="translate(81.997 110)" fill="#fff"/>
  </g>
</svg>
