<svg xmlns="http://www.w3.org/2000/svg" width="98.007" height="98.025" viewBox="0 0 98.007 98.025">
  <g id="stamp16" transform="translate(-81.997 -455)">
    <path id="패스_82432" data-name="패스 82432" d="M62.122,389.637c0,.524,1.188.21,6.782,1.643a3.954,3.954,0,0,1,3.181,3.5l.979,5.314s-5.384.174-6.118.245-2.132.174-2.2,1.188a8.367,8.367,0,0,0,.524,3.218,3.407,3.407,0,0,0,3.287,1.783c2.063-.1,6.782-.14,6.782-.14s1.539,0,1.434,1.468,0,13.424,0,13.424L64.4,420.966l.665-8.042a2.448,2.448,0,0,0-2.032-2.8,2.4,2.4,0,0,0-.486-.028c-2.831,0-9.159.279-9.265.279s-1.188.1-.944.489,4.615.558,7.587,1.712,3.042,6.5,3.112,7.307a5.76,5.76,0,0,1,0,1.259l-6.957.28s-1.119.035-1.049,1.818.455,2.867,1.049,3.392a4.2,4.2,0,0,0,2.447.839c.944.069,7.377,0,7.377,0a1.46,1.46,0,0,1,1.119,1.679c-.1,1.468,0,8.949,0,8.949H68.8v-9.614a1.075,1.075,0,0,1,.979-1.014c.944-.106,6.258-.14,8.006-.49a14.188,14.188,0,0,0,5.978-3.741c.909-1.224.734-1.818-.524-1.818s-4.545-.14-4.545-.14v-13.7s-.175-1.294,1.049-1.329a67.916,67.916,0,0,0,7.8-.245,13.622,13.622,0,0,0,5.664-3.53c.908-1.084,1.468-2.342,0-2.377s-18.949-.175-18.949-.175l.594-8.425s.07-1.329-.594-1.854a3.055,3.055,0,0,0-1.993-.6c-.594,0-9.58.14-9.58.14s-.567-.075-.567.449" transform="translate(81.997 110)" fill="#fff"/>
    <path id="패스_82433" data-name="패스 82433" d="M48.981,443.025a48.983,48.983,0,1,1,19.073-3.849,49.013,49.013,0,0,1-19.073,3.849m0-93.677a44.676,44.676,0,1,0,44.676,44.677,44.676,44.676,0,0,0-44.676-44.677" transform="translate(81.997 110)" fill="#fff"/>
    <path id="패스_82434" data-name="패스 82434" d="M27.669,394.374H23.215a.681.681,0,0,1-.679-.68V374.928l-3.808,1.564a1.176,1.176,0,0,1-.408.1c-.238,0-.374-.17-.374-.443v-3.875a.469.469,0,0,1,.34-.476l5.541-2.549a1.779,1.779,0,0,1,.782-.137h3.06a.626.626,0,0,1,.646.647v23.933a.654.654,0,0,1-.646.68" transform="translate(81.997 110)" fill="#fff"/>
    <path id="패스_82435" data-name="패스 82435" d="M45.179,394.68c-5.473,0-9.111-3.229-9.111-9.995v-5.2c0-7.684,3.672-10.675,9.451-10.675a28.935,28.935,0,0,1,6.7.68c.544.135.748.339.748.748V373.2c0,.475-.237.714-.612.714h-.169a42.651,42.651,0,0,0-6.188-.476c-2.992,0-4.249,1.189-4.249,4.963v.238a23.981,23.981,0,0,1,4.011-.408c4.59,0,8.4,1.937,8.4,7.581v.238c0,5.167-3.127,8.635-8.975,8.635m3.3-8.873c0-2.787-1.632-3.535-3.638-3.535a22.076,22.076,0,0,0-3.093.34v2.073c0,4.624,1.461,5.576,3.433,5.576,1.87,0,3.3-.884,3.3-4.216Z" transform="translate(81.997 110)" fill="#fff"/>
  </g>
</svg>
