<svg xmlns="http://www.w3.org/2000/svg" xmlns:xlink="http://www.w3.org/1999/xlink" width="188.666" height="169.654" viewBox="0 0 188.666 169.654">
  <defs>
    <clipPath id="clip-path">
      <rect id="사각형_70103" data-name="사각형 70103" width="188.666" height="169.654" fill="#fff"/>
    </clipPath>
    <clipPath id="clip-path-2">
      <rect id="사각형_70097" data-name="사각형 70097" width="5.04" height="3.368" fill="#fff"/>
    </clipPath>
    <clipPath id="clip-path-3">
      <rect id="사각형_70098" data-name="사각형 70098" width="3.929" height="3.762" fill="#fff"/>
    </clipPath>
    <clipPath id="clip-path-4">
      <rect id="사각형_70099" data-name="사각형 70099" width="2.748" height="5.18" fill="#fff"/>
    </clipPath>
    <clipPath id="clip-path-5">
      <rect id="사각형_70100" data-name="사각형 70100" width="4.895" height="4.936" fill="#fff"/>
    </clipPath>
    <clipPath id="clip-path-6">
      <rect id="사각형_70101" data-name="사각형 70101" width="5.406" height="3.892" fill="#fff"/>
    </clipPath>
    <clipPath id="clip-path-7">
      <rect id="사각형_70102" data-name="사각형 70102" width="4.526" height="4.635" fill="#fff"/>
    </clipPath>
  </defs>
  <g id="그룹_71500" data-name="그룹 71500" transform="translate(-1002.961 -6465)">
    <text id="강릉바우길_완주" data-name="강릉바우길 완주" transform="translate(1097.294 6583.393)" fill="#fff" font-size="10" font-family="NotoSansKR-Bold, Noto Sans KR" font-weight="700" letter-spacing="-0.05em"><tspan x="-31" y="0">강릉바우길 완주</tspan></text>
    <path id="패스_68195" data-name="패스 68195" d="M2485.982,4694.586c0,.591,1.339.237,7.641,1.852,3.544,1.024,3.583,3.938,3.583,3.938l1.1,5.987s-6.064.2-6.892.276-2.4.2-2.48,1.338a9.449,9.449,0,0,0,.59,3.625,3.839,3.839,0,0,0,3.7,2.008c2.323-.118,7.639-.158,7.639-.158s1.733,0,1.615,1.653,0,15.123,0,15.123l-13.942-.354.749-9.058s.354-3.189-2.836-3.189-10.318.315-10.437.315-1.339.116-1.063.551,5.2.628,8.547,1.929,3.427,7.325,3.505,8.231a6.55,6.55,0,0,1,0,1.418l-7.837.315s-1.261.039-1.182,2.047.512,3.229,1.182,3.821a4.716,4.716,0,0,0,2.756.945c1.064.08,8.31,0,8.31,0a1.644,1.644,0,0,1,1.26,1.892c-.117,1.654,0,10.081,0,10.081h2.009v-10.83a1.213,1.213,0,0,1,1.1-1.143c1.063-.119,7.05-.157,9.019-.552a15.974,15.974,0,0,0,6.735-4.213c1.024-1.378.828-2.047-.591-2.047s-5.119-.158-5.119-.158v-15.438s-.2-1.458,1.181-1.5,6.735.119,8.782-.276,5.357-2.757,6.381-3.977,1.654-2.639,0-2.678-21.347-.2-21.347-.2l.67-9.491s.079-1.5-.67-2.088a3.45,3.45,0,0,0-2.244-.669c-.669,0-10.791.158-10.791.158S2485.982,4694,2485.982,4694.586Z" transform="translate(-1400.34 1823.379)" fill="#fff"/>
    <g id="그룹_71161" data-name="그룹 71161" transform="translate(1002.961 6465)">
      <g id="그룹_71160" data-name="그룹 71160" clip-path="url(#clip-path)">
        <path id="패스_69027" data-name="패스 69027" d="M96.009,169.654c-37.661,0-62.215-6.351-62.57-6.446l-.448-.119L0,107.709l.173-.5C23.194,40.639,62.117.734,62.507.337L62.84,0h65.694l.34.417c47.473,58.118,59.567,107.282,59.684,107.771l.107.449-.235.4-32.883,55.3-.511.092a335.41,335.41,0,0,1-59.027,5.228m-61.544-8.53c5.177,1.27,54.752,12.679,119.66,1.158l32.111-54.006c-1.3-4.984-14.325-51.422-58.781-106H63.8C60.007,6.254,24.235,44.921,2.492,107.454Z" fill="#fff"/>
        <g id="그룹_71144" data-name="그룹 71144" transform="translate(33.189 83.479)" style="mix-blend-mode: normal;isolation: isolate">
          <g id="그룹_71143" data-name="그룹 71143">
            <g id="그룹_71142" data-name="그룹 71142" clip-path="url(#clip-path-2)">
              <path id="패스_69028" data-name="패스 69028" d="M34.255,74.408l-5.039-.924,3.934,3.368Z" transform="translate(-29.215 -73.485)" fill="#fff"/>
            </g>
          </g>
        </g>
        <path id="패스_69029" data-name="패스 69029" d="M64.831,5.17c-37.319,39.059-58.2,98.808-58.2,98.808l34.031,9.861C67.345,42.489,112.011,5.17,112.011,5.17ZM37.565,95.992a3.687,3.687,0,0,1-1.412,1.739,3.952,3.952,0,0,1-2.2.6,6.512,6.512,0,0,1-2.656-.631l-3.92-1.761a7.608,7.608,0,0,1-2.412-1.638A4.5,4.5,0,0,1,23.776,92.2a3.632,3.632,0,0,1,.206-2.259,3.337,3.337,0,0,1,1.2-1.492,4.126,4.126,0,0,1,1.929-.688,6.352,6.352,0,0,1,2.371.224L28.6,90.1a2.006,2.006,0,0,0-.874.026,1.736,1.736,0,0,0-.705.369,1.614,1.614,0,0,0-.446.617,1.651,1.651,0,0,0-.089,1.047,2.14,2.14,0,0,0,.578.987,3.693,3.693,0,0,0,1.152.776l3.921,1.762a2.824,2.824,0,0,0,1.189.271,1.747,1.747,0,0,0,.991-.3,1.812,1.812,0,0,0,.646-.826,1.711,1.711,0,0,0,.106-1.05,2.017,2.017,0,0,0-.556-.972,3.727,3.727,0,0,0-1.163-.776l-.22-.1L32.482,93.5l-2.413-1.083,1.494-3.6,2.6,1.166a7.631,7.631,0,0,1,2.415,1.64,4.5,4.5,0,0,1,1.2,2.107,3.636,3.636,0,0,1-.207,2.261m4.811-11.369-2.367-.433-1.694,3.745,1.848,1.581-.937,2.075-11.386-10.2.554-1.222,14.919,2.378Zm4.155-8.631L35.408,74.768l9.363,4.784-.9,1.812L30.9,74.732l1.145-2.316L43.317,73.7l-9.508-4.859.9-1.811,12.978,6.632Zm4.24-7.785a3.727,3.727,0,0,1-1.586,1.6,4.1,4.1,0,0,1-2.27.412,6.609,6.609,0,0,1-2.613-.842l-3.777-2.062A7.551,7.551,0,0,1,38.254,65.5a4.348,4.348,0,0,1-1-2.174,3.543,3.543,0,0,1,.424-2.211,3.39,3.39,0,0,1,1.351-1.371,4.283,4.283,0,0,1,2.006-.517,6.485,6.485,0,0,1,2.364.418l-1.085,2.007a2.084,2.084,0,0,0-.88-.047,1.793,1.793,0,0,0-.746.3,1.657,1.657,0,0,0-.508.57,1.612,1.612,0,0,0-.189,1.026,2.054,2.054,0,0,0,.485,1.02,3.71,3.71,0,0,0,1.086.862l3.779,2.062a2.842,2.842,0,0,0,1.17.367A1.812,1.812,0,0,0,47.54,67.6a1.843,1.843,0,0,0,.732-.761,1.688,1.688,0,0,0,.206-1.025,1.954,1.954,0,0,0-.467-1.007,3.706,3.706,0,0,0-1.1-.861l-.211-.116L45.9,65.327l-2.324-1.27,1.846-3.419L47.919,62a7.566,7.566,0,0,1,2.274,1.818A4.361,4.361,0,0,1,51.2,66a3.548,3.548,0,0,1-.426,2.21m5.8-10.542-11.1-1.876,9.086,5.3-1.027,1.74L40.937,55.484l1.311-2.225L53.5,55.2l-9.23-5.381,1.027-1.74L57.89,55.426Zm3.739-6.046-.7,1.094-.027.042-.412.642L46.789,45.685l.412-.643h0l3.647-5.679,2.248,1.4-2.916,4.543,2.859,1.781L55.5,43.259l2.247,1.4-2.458,3.829,2.776,1.729,2.917-4.543,2.247,1.4Zm6.31-9.2a3.852,3.852,0,0,1-1.8,1.463A4.06,4.06,0,0,1,62.477,44a8.113,8.113,0,0,1-2.715-1.231l-7.745-5.154,1.211-1.734,7.8,5.193a3.247,3.247,0,0,0,1.915.653,1.761,1.761,0,0,0,1.412-.812,1.693,1.693,0,0,0,.266-1.588,3.117,3.117,0,0,0-1.32-1.5L55.5,32.626l1.213-1.732,7.745,5.153a7.9,7.9,0,0,1,2.164,2.02,3.815,3.815,0,0,1,.74,2.179,3.728,3.728,0,0,1-.742,2.172M73.7,32.544l-10.96-2.954L71.274,35.7l-1.231,1.606L58.208,28.836l1.578-2.053,11.1,3.037-8.669-6.206,1.231-1.606,11.834,8.471Zm5.721-6.776a3.929,3.929,0,0,1-1.906,1.268,4.38,4.38,0,0,1-2.362.013A6.733,6.733,0,0,1,72.692,25.8L69.3,23.171a7.247,7.247,0,0,1-1.927-2.131,4.036,4.036,0,0,1-.578-2.262,3.432,3.432,0,0,1,.857-2.054,3.538,3.538,0,0,1,1.624-1.092,4.577,4.577,0,0,1,2.116-.157,6.736,6.736,0,0,1,2.294.8L72.2,18.025a2.176,2.176,0,0,0-.878-.193,1.911,1.911,0,0,0-.808.166,1.718,1.718,0,0,0-.621.463,1.558,1.558,0,0,0-.391.954,1.937,1.937,0,0,0,.29,1.066,3.561,3.561,0,0,0,.922,1.011l3.394,2.625a2.923,2.923,0,0,0,1.105.552,1.889,1.889,0,0,0,1.955-.64,1.619,1.619,0,0,0,.407-.952,1.8,1.8,0,0,0-.272-1.046,3.6,3.6,0,0,0-.934-1.016l-.19-.147-1.1,1.3-2.089-1.615,2.522-2.977,2.247,1.738a7.31,7.31,0,0,1,1.931,2.133,4.061,4.061,0,0,1,.583,2.264,3.439,3.439,0,0,1-.858,2.056" transform="translate(0.902 0.703)" fill="#fff"/>
        <g id="그룹_71147" data-name="그룹 71147" transform="translate(63.284 140.643)" style="mix-blend-mode: normal;isolation: isolate">
          <g id="그룹_71146" data-name="그룹 71146">
            <g id="그룹_71145" data-name="그룹 71145" clip-path="url(#clip-path-3)">
              <path id="패스_69030" data-name="패스 69030" d="M59.194,124.321a.918.918,0,0,0-.579-.269l-2.693-.247-.214,3.511,2.695.247a.85.85,0,0,0,.6-.161,1.338,1.338,0,0,0,.429-.581,2.966,2.966,0,0,0,.2-.912,2.85,2.85,0,0,0-.083-.936,1.44,1.44,0,0,0-.353-.652" transform="translate(-55.708 -123.805)" fill="#fff"/>
            </g>
          </g>
        </g>
        <g id="그룹_71150" data-name="그룹 71150" transform="translate(108.916 143.64)" style="mix-blend-mode: normal;isolation: isolate">
          <g id="그룹_71149" data-name="그룹 71149">
            <g id="그룹_71148" data-name="그룹 71148" clip-path="url(#clip-path-4)">
              <path id="패스_69031" data-name="패스 69031" d="M95.877,131.624l2.748-.156-1.638-5.025Z" transform="translate(-95.877 -126.444)" fill="#fff"/>
            </g>
          </g>
        </g>
        <path id="패스_69032" data-name="패스 69032" d="M140.988,110.9C65.861,123.5,11.2,103.5,11.2,103.5l23.608,40.849c52.491,12.765,114.671.949,114.671.949ZM42.293,132.346a2.143,2.143,0,0,0,.541,1.038,1.736,1.736,0,0,0,.992.487,1.389,1.389,0,0,0,.879-.132,1.974,1.974,0,0,0,.726-.687,4.176,4.176,0,0,0,.523-1.2l2.23.362a8.954,8.954,0,0,1-1.092,2.643,4.22,4.22,0,0,1-1.6,1.522,3.167,3.167,0,0,1-1.988.29,4.018,4.018,0,0,1-2.156-1.01,4.315,4.315,0,0,1-1.2-2.116,8.384,8.384,0,0,1-.142-3.073l.467-4.069a8.042,8.042,0,0,1,.83-2.914,3.817,3.817,0,0,1,1.631-1.663,3.711,3.711,0,0,1,2.3-.291,3.434,3.434,0,0,1,1.854.914,4.808,4.808,0,0,1,1.2,1.978,9.441,9.441,0,0,1,.446,2.892l-2.23-.362a4.631,4.631,0,0,0-.244-1.317,2.37,2.37,0,0,0-.544-.9,1.455,1.455,0,0,0-.8-.41,1.617,1.617,0,0,0-1.066.153,1.88,1.88,0,0,0-.755.834,4.292,4.292,0,0,0-.394,1.447l-.468,4.069a4.41,4.41,0,0,0,.053,1.515m15.964-6.132-5.516-.691-.3,3.44,4.65.584-.234,2.7-4.65-.583L51.92,135l5.515.692-.234,2.7-6.894-.864-.78-.1,1.291-14.888,2.158.27,5.516.692Zm9.5,13.18-2.623-.24-2.224-6.245-1.312-.12-.366,6.008-2.164-.2.909-14.941,2.164.2h0l2.867.262a2.73,2.73,0,0,1,1.634.708,3.7,3.7,0,0,1,1.018,1.667,6.5,6.5,0,0,1,.252,2.382,6.315,6.315,0,0,1-.537,2.311,3.41,3.41,0,0,1-1.212,1.464,2.583,2.583,0,0,1-.777.335Zm9.091-11.711-3.132-.194-.47,12.242-2.167-.136.469-12.24-3.132-.194.1-2.715,8.433.524Zm2.841,12.357-2.248-.093.342-14.969,2.248.094Zm9.963-12.009-5.393-.109-.024,3.593,4.521.092-.018,2.72-4.521-.092-.04,5.944-2.169-.045.1-14.975,1.994.041,5.569.114Zm1.4,12.237L90.9,125.291l2.249,0,.15,14.978Zm11.766-2.4a4.494,4.494,0,0,1-1.36,1.8,3.242,3.242,0,0,1-1.919.655,3.812,3.812,0,0,1-2.265-.6,4.07,4.07,0,0,1-1.478-1.869,8.288,8.288,0,0,1-.575-3.01l-.114-4.109a8.282,8.282,0,0,1,.407-3.037,4.07,4.07,0,0,1,1.372-1.944,3.774,3.774,0,0,1,2.229-.716,3.272,3.272,0,0,1,1.956.56,4.519,4.519,0,0,1,1.461,1.731,9.167,9.167,0,0,1,.85,2.776l-2.247.056a4.518,4.518,0,0,0-.427-1.258,2.208,2.208,0,0,0-.663-.786,1.376,1.376,0,0,0-.851-.257,1.647,1.647,0,0,0-1.027.349,2,2,0,0,0-.627.963,4.433,4.433,0,0,0-.184,1.505l.114,4.109a4.349,4.349,0,0,0,.267,1.487,2.032,2.032,0,0,0,.678.927,1.675,1.675,0,0,0,1.047.3,1.41,1.41,0,0,0,.846-.294,2.116,2.116,0,0,0,.619-.813,4.435,4.435,0,0,0,.344-1.286l2.248-.056a9.265,9.265,0,0,1-.7,2.814m8.97,1.761-.77-2.362-4.21.239-.521,2.433-2.332.132,3.619-15.208,1.376-.078,5.171,14.711Zm7.085-.562-2.162.187-.909-12.225-3.125.268-.2-2.711,8.411-.724.2,2.711-3.124.269Zm6.432-.649-.993.116-.384.045-.779.091-1.46-14.9,1.385-.161,6.279-.736.265,2.7-5.507.646.337,3.442,4.643-.544.265,2.7-4.643.545.328,3.341,5.507-.646.266,2.7-5.508.646Z" transform="translate(1.523 14.076)" fill="#fff"/>
        <g id="그룹_71153" data-name="그룹 71153" transform="translate(130.047 48.755)" style="mix-blend-mode: normal;isolation: isolate">
          <g id="그룹_71152" data-name="그룹 71152">
            <g id="그룹_71151" data-name="그룹 71151" clip-path="url(#clip-path-5)">
              <path id="패스_69033" data-name="패스 69033" d="M118.314,47.489l.028-.017a2.414,2.414,0,0,0,.772-.684,1.36,1.36,0,0,0,.258-.808,1.678,1.678,0,0,0-.276-.868l-1.362-2.2-3.256,1.943,1.361,2.195a1.547,1.547,0,0,0,1.062.778,2.069,2.069,0,0,0,1.412-.343" transform="translate(-114.478 -42.918)" fill="#fff"/>
            </g>
          </g>
        </g>
        <g id="그룹_71156" data-name="그룹 71156" transform="translate(138.038 57.655)" style="mix-blend-mode: normal;isolation: isolate">
          <g id="그룹_71155" data-name="그룹 71155">
            <g id="그룹_71154" data-name="그룹 71154" clip-path="url(#clip-path-6)">
              <path id="패스_69034" data-name="패스 69034" d="M122.956,54.645l3.961-3.892-5.406,1.383Z" transform="translate(-121.512 -50.753)" fill="#fff"/>
            </g>
          </g>
        </g>
        <g id="그룹_71159" data-name="그룹 71159" transform="translate(135.759 45.558)" style="mix-blend-mode: normal;isolation: isolate">
          <g id="그룹_71158" data-name="그룹 71158">
            <g id="그룹_71157" data-name="그룹 71157" clip-path="url(#clip-path-7)">
              <path id="패스_69035" data-name="패스 69035" d="M122.408,40.1l-2.9,1.731,1.362,2.195a1.368,1.368,0,0,0,.977.693,2.021,2.021,0,0,0,1.329-.342,1.654,1.654,0,0,0,.81-.934,1.386,1.386,0,0,0-.214-1.148Z" transform="translate(-119.506 -40.104)" fill="#fff"/>
            </g>
          </g>
        </g>
        <path id="패스_69036" data-name="패스 69036" d="M114.778,6.439,88.9,30.644c47.673,59.415,56.906,116.883,56.906,116.883l24.124-40.546C155.448,54.937,114.778,6.439,114.778,6.439m2.2,47.226L114.824,50.2l-.527-.851,13.525-8.066,1,1.614,1.6,2.583a3.777,3.777,0,0,1,.626,1.965,3.107,3.107,0,0,1-.588,1.826,5.512,5.512,0,0,1-1.748,1.547,4.452,4.452,0,0,1-1.546.6,2.859,2.859,0,0,1-2.636-.867,2.74,2.74,0,0,1,.178,1.488,3.012,3.012,0,0,1-.646,1.4,5.152,5.152,0,0,1-1.417,1.189l-.027.016a5.627,5.627,0,0,1-2.221.816,3.275,3.275,0,0,1-1.932-.333,3.861,3.861,0,0,1-1.493-1.451m6.446,10.906,1.861-1.828L123.07,58.9l-2.539.65-1.225-2.13L135.344,53.7l.722,1.256L124.649,66.7ZM128.589,73a4.506,4.506,0,0,1-2.248-4.224A4.24,4.24,0,0,1,127.4,66.5a8.689,8.689,0,0,1,2.558-1.939l8.885-4.71,1.074,2.014-8.953,4.745a3.464,3.464,0,0,0-1.6,1.477,1.842,1.842,0,0,0,.08,1.739,1.868,1.868,0,0,0,1.405,1.051,3.454,3.454,0,0,0,2.122-.488l8.952-4.745L143,67.662l-8.885,4.71a8.629,8.629,0,0,1-3.046,1.025,4.257,4.257,0,0,1-2.482-.4m3.114,7.716a4.067,4.067,0,0,1-.407-2.4,4.493,4.493,0,0,1,1.058-2.271,7.175,7.175,0,0,1,2.37-1.794l4.165-2.064a8.071,8.071,0,0,1,3-.88,4.633,4.633,0,0,1,2.526.473,3.8,3.8,0,0,1,1.669,1.755,3.706,3.706,0,0,1,.357,2.055,4.681,4.681,0,0,1-.8,2.1,7.055,7.055,0,0,1-1.841,1.837l-1.079-2.216a2.269,2.269,0,0,0,.593-.754,1.96,1.96,0,0,0,.2-.851,1.813,1.813,0,0,0-.182-.807,1.72,1.72,0,0,0-.778-.809,2.205,2.205,0,0,0-1.2-.206,3.952,3.952,0,0,0-1.43.426l-4.167,2.065a3.089,3.089,0,0,0-1.051.809,1.946,1.946,0,0,0-.248,2.166,1.811,1.811,0,0,0,.77.824,2.07,2.07,0,0,0,1.17.214,4,4,0,0,0,1.439-.434l.233-.116-.8-1.647,2.563-1.27,1.838,3.774-2.757,1.365a8.114,8.114,0,0,1-3.012.884,4.637,4.637,0,0,1-2.531-.469,3.8,3.8,0,0,1-1.668-1.757m2.9,5.742,14.252-6.7.979,2.154-14.255,6.7Zm7.754,10.681L139.746,98.3l-2.272-5.373-.889-2.1,14.382-6.415.888,2.1-11.769,5.251Z" transform="translate(12.091 0.876)" fill="#fff"/>
      </g>
    </g>
  </g>
</svg>
