<svg xmlns="http://www.w3.org/2000/svg" width="407.158" height="330.175" viewBox="0 0 407.158 330.175">
  <g id="그룹_71615" data-name="그룹 71615" transform="translate(-3433.94 -255.431) rotate(-14)">
    <path id="빼기_116" data-name="빼기 116" d="M177.986,250.261A242.743,242.743,0,0,1,108.7,240.42a210.457,210.457,0,0,1-30.234-11.546A180.632,180.632,0,0,1,52.13,213.582,149.037,149.037,0,0,1,30.4,195.049a120.578,120.578,0,0,1-16.41-21.272A99.875,99.875,0,0,1,3.616,150.269,90.363,90.363,0,0,1,0,125.03,92.924,92.924,0,0,1,11.842,80.015c7.591-13.863,18.551-26.57,32.577-37.766A181.994,181.994,0,0,1,93.308,14.842,231.711,231.711,0,0,1,154.086.908l7.3,4.981C119.531,8.743,80.8,22.4,52.321,44.35,23.658,66.442,7.872,95.095,7.872,125.03c0,31.97,17.7,62.027,49.826,84.634s74.85,35.059,120.287,35.059,88.16-12.451,120.289-35.059S348.1,157,348.1,125.03c0-30.757-16.547-59.988-46.592-82.307-29.929-22.232-70.271-35.442-113.594-37.2.069-.931.179-2.086.295-3.31l0-.021c.067-.712.137-1.448.2-2.2a238.229,238.229,0,0,1,65.605,11.756A204.968,204.968,0,0,1,282.5,23.638a175.587,175.587,0,0,1,24.74,15.283,145.233,145.233,0,0,1,20.359,18.232,118.377,118.377,0,0,1,15.337,20.73,93.343,93.343,0,0,1,13.04,47.147,90.36,90.36,0,0,1-3.616,25.239,99.873,99.873,0,0,1-10.371,23.508,120.577,120.577,0,0,1-16.41,21.272,149.037,149.037,0,0,1-21.733,18.534A180.634,180.634,0,0,1,277.5,228.874a210.463,210.463,0,0,1-30.233,11.546A242.74,242.74,0,0,1,177.986,250.261Zm.223-12.4a230.785,230.785,0,0,1-64.177-8.865,198.386,198.386,0,0,1-28.007-10.4,168.521,168.521,0,0,1-24.4-13.776,137.115,137.115,0,0,1-20.133-16.7,109.04,109.04,0,0,1-15.2-19.164,88.739,88.739,0,0,1-9.607-21.178,79.329,79.329,0,0,1-3.35-22.738A81.869,81.869,0,0,1,24.243,84.6c6.994-12.457,17.1-23.881,30.025-33.956A169.591,169.591,0,0,1,99.341,25.952,219.406,219.406,0,0,1,155.4,13.3l-3.263,1.977v.159c-37.621,4.156-72.092,17.4-97.065,37.283-25.24,20.1-39.14,45.783-39.14,72.319,0,29.661,16.879,57.545,47.528,78.517s71.4,32.52,114.748,32.52,84.1-11.549,114.747-32.52,47.528-48.856,47.528-78.517c0-24.346-11.3-47.456-32.679-66.833-20.684-18.747-50.083-32.776-82.781-39.5-.114-.68-.234-1.329-.358-1.931a204.318,204.318,0,0,1,47.374,15.5,155.487,155.487,0,0,1,37.5,24.559,107.861,107.861,0,0,1,24.667,31.6,81.127,81.127,0,0,1,8.879,36.613,79.327,79.327,0,0,1-3.35,22.738,88.739,88.739,0,0,1-9.607,21.178,109.038,109.038,0,0,1-15.2,19.164,137.117,137.117,0,0,1-20.133,16.7,168.528,168.528,0,0,1-24.4,13.776,198.394,198.394,0,0,1-28.007,10.4A230.782,230.782,0,0,1,178.209,237.858Z" transform="translate(3249.75 1162.901)" fill="#ff6d6d" stroke="rgba(0,0,0,0)" stroke-width="1"/>
    <g id="그룹_71062" data-name="그룹 71062" transform="translate(3316.776 1347.808)">
      <path id="패스_68164" data-name="패스 68164" d="M-126,5345.526s11.858,13.833,29.973,8.894,22.4-10.211,41.5-1.648c-5.27-4.61-16.139-10.869-37.219-1.976S-126,5345.526-126,5345.526Z" transform="translate(126 -5331.739)" fill="#ff6d6d"/>
      <path id="패스_68165" data-name="패스 68165" d="M-126,5345.526s11.858,13.833,29.973,8.894,22.4-10.211,41.5-1.648c-5.27-4.61-16.139-10.869-37.219-1.976S-126,5345.526-126,5345.526Z" transform="translate(126 -5338.27)" fill="#ff6d6d"/>
      <path id="패스_68166" data-name="패스 68166" d="M-126,5345.526s11.858,13.833,29.973,8.894,22.4-10.211,41.5-1.648c-5.27-4.61-16.139-10.869-37.219-1.976S-126,5345.526-126,5345.526Z" transform="translate(126 -5345.526)" fill="#ff6d6d"/>
    </g>
    <g id="그룹_71069" data-name="그룹 71069" transform="translate(3316.776 1223.378)">
      <path id="패스_68164-2" data-name="패스 68164" d="M-126,5345.526s11.858,13.833,29.973,8.894,22.4-10.211,41.5-1.648c-5.27-4.61-16.139-10.869-37.219-1.976S-126,5345.526-126,5345.526Z" transform="translate(126 -5331.739)" fill="#ff6d6d"/>
      <path id="패스_68165-2" data-name="패스 68165" d="M-126,5345.526s11.858,13.833,29.973,8.894,22.4-10.211,41.5-1.648c-5.27-4.61-16.139-10.869-37.219-1.976S-126,5345.526-126,5345.526Z" transform="translate(126 -5338.27)" fill="#ff6d6d"/>
      <path id="패스_68166-2" data-name="패스 68166" d="M-126,5345.526s11.858,13.833,29.973,8.894,22.4-10.211,41.5-1.648c-5.27-4.61-16.139-10.869-37.219-1.976S-126,5345.526-126,5345.526Z" transform="translate(126 -5345.526)" fill="#ff6d6d"/>
    </g>
    <g id="그룹_71063" data-name="그룹 71063" transform="translate(3467.668 1347.808)">
      <path id="패스_68164-3" data-name="패스 68164" d="M-54.526,5345.526s-11.858,13.833-29.973,8.894-22.4-10.211-41.5-1.648c5.27-4.61,16.139-10.869,37.219-1.976S-54.526,5345.526-54.526,5345.526Z" transform="translate(126 -5331.739)" fill="#ff6d6d"/>
      <path id="패스_68165-3" data-name="패스 68165" d="M-54.526,5345.526s-11.858,13.833-29.973,8.894-22.4-10.211-41.5-1.648c5.27-4.61,16.139-10.869,37.219-1.976S-54.526,5345.526-54.526,5345.526Z" transform="translate(126 -5338.27)" fill="#ff6d6d"/>
      <path id="패스_68166-3" data-name="패스 68166" d="M-54.526,5345.526s-11.858,13.833-29.973,8.894-22.4-10.211-41.5-1.648c5.27-4.61,16.139-10.869,37.219-1.976S-54.526,5345.526-54.526,5345.526Z" transform="translate(126 -5345.526)" fill="#ff6d6d"/>
    </g>
    <g id="그룹_71070" data-name="그룹 71070" transform="translate(3467.668 1223.378)">
      <path id="패스_68164-4" data-name="패스 68164" d="M-54.526,5345.526s-11.858,13.833-29.973,8.894-22.4-10.211-41.5-1.648c5.27-4.61,16.139-10.869,37.219-1.976S-54.526,5345.526-54.526,5345.526Z" transform="translate(126 -5331.739)" fill="#ff6d6d"/>
      <path id="패스_68165-4" data-name="패스 68165" d="M-54.526,5345.526s-11.858,13.833-29.973,8.894-22.4-10.211-41.5-1.648c5.27-4.61,16.139-10.869,37.219-1.976S-54.526,5345.526-54.526,5345.526Z" transform="translate(126 -5338.27)" fill="#ff6d6d"/>
      <path id="패스_68166-4" data-name="패스 68166" d="M-54.526,5345.526s-11.858,13.833-29.973,8.894-22.4-10.211-41.5-1.648c5.27-4.61,16.139-10.869,37.219-1.976S-54.526,5345.526-54.526,5345.526Z" transform="translate(126 -5345.526)" fill="#ff6d6d"/>
    </g>
    <g id="그룹_71075" data-name="그룹 71075" transform="translate(3293.301 1260.457)">
      <rect id="사각형_70066" data-name="사각형 70066" width="70.214" height="1.778" transform="translate(201.754 0)" fill="#ff6d6d"/>
      <rect id="사각형_70068" data-name="사각형 70068" width="67.548" height="1.778" transform="translate(67.548 1.778) rotate(180)" fill="#ff6d6d"/>
    </g>
    <rect id="사각형_70065" data-name="사각형 70065" width="271.968" height="1.778" transform="translate(3293.301 1332.448)" fill="#ff6d6d"/>
    <text id="혜택발급완료" transform="translate(3423.368 1314.789)" fill="#ff6d6d" font-size="42" font-family="NotoSansCJKkr-Black, Noto Sans CJK KR" font-weight="800" letter-spacing="-0.05em"><tspan x="-110" y="0">혜택발급완료</tspan></text>
    <text id="BAUGIL_PASS" data-name="BAUGIL
PASS" transform="translate(3428.779 1361.873)" fill="#ff6d6d" font-size="16" font-family="NotoSansCJKkr-Black, Noto Sans CJK KR" font-weight="800" letter-spacing="-0.05em"><tspan x="-28" y="0">BAUGIL</tspan><tspan x="-19" y="19">PASS</tspan></text>
    <text id="_23.04.21" data-name="23.04.21" transform="translate(3423.054 1268.387)" fill="#ff6d6d" font-size="20" font-family="NotoSansCJKkr-Black, Noto Sans CJK KR" font-weight="800"><tspan x="-43" y="0">23.04.21</tspan></text>
    <g id="그룹_71076" data-name="그룹 71076" transform="translate(3273.973 1287.927)">
      <path id="패스_68169" data-name="패스 68169" d="M213.051,0,216,5.974l6.6.983-4.756,4.638,1.14,6.564-5.935-3.105-5.9,3.105,1.14-6.564-4.8-4.638,6.6-.983Z" transform="translate(80.911 0)" fill="#ff6d6d"/>
      <path id="패스_68174" data-name="패스 68174" d="M213.051,0,216,5.974l6.6.983-4.756,4.638,1.14,6.564-5.935-3.105-5.9,3.105,1.14-6.564-4.8-4.638,6.6-.983Z" transform="translate(-203.5 0)" fill="#ff6d6d"/>
    </g>
    <path id="패스_68197" data-name="패스 68197" d="M2493.484,4695.041c0,.991,2.246.4,12.819,3.105,5.948,1.719,6.013,6.608,6.013,6.608l1.85,10.044s-10.175.33-11.562.464-4.03.328-4.163,2.245a15.833,15.833,0,0,0,.989,6.081,6.441,6.441,0,0,0,6.213,3.371c3.9-.2,12.818-.266,12.818-.266s2.909,0,2.71,2.773,0,25.373,0,25.373l-23.392-.594,1.256-15.2s.594-5.352-4.759-5.352-17.312.529-17.511.529-2.245.2-1.784.925,8.722,1.056,14.339,3.236,5.75,12.292,5.881,13.811a11.031,11.031,0,0,1,0,2.38l-13.149.527s-2.115.066-1.983,3.437.859,5.418,1.983,6.41a7.931,7.931,0,0,0,4.625,1.586c1.785.133,13.942,0,13.942,0a2.756,2.756,0,0,1,2.114,3.173c-.2,2.774,0,16.915,0,16.915h3.372v-18.173a2.033,2.033,0,0,1,1.849-1.915c1.784-.2,11.828-.265,15.131-.927s9.582-4.758,11.3-7.069,1.388-3.437-.991-3.437-8.59-.265-8.59-.265v-25.9s-.33-2.445,1.983-2.513,11.3.2,14.735-.462,8.987-4.625,10.706-6.672,2.775-4.429,0-4.494-35.815-.332-35.815-.332l1.123-15.922s.133-2.513-1.123-3.5a5.788,5.788,0,0,0-3.767-1.125c-1.122,0-18.105.267-18.105.267S2493.484,4694.05,2493.484,4695.041Z" transform="translate(911.835 -3536.42)" fill="#ff6d6d"/>
  </g>
</svg>
