<svg xmlns="http://www.w3.org/2000/svg" width="125" height="125" viewBox="0 0 125 125">
  <g id="그룹_71497" data-name="그룹 71497" transform="translate(-2346 -6240)">
    <path id="패스_68195" data-name="패스 68195" d="M2487.6,4694.685c0,.677,1.535.272,8.76,2.123,4.064,1.174,4.109,4.516,4.109,4.516l1.264,6.864s-6.953.225-7.9.316-2.754.226-2.844,1.535a10.823,10.823,0,0,0,.677,4.156,4.4,4.4,0,0,0,4.245,2.3c2.664-.135,8.759-.18,8.759-.18s1.987,0,1.852,1.9,0,17.338,0,17.338l-15.985-.406.859-10.386s.406-3.657-3.252-3.657-11.83.362-11.966.362-1.534.133-1.219.632,5.96.721,9.8,2.211,3.929,8.4,4.019,9.437a7.5,7.5,0,0,1,0,1.626l-8.985.361s-1.445.045-1.355,2.348.587,3.7,1.355,4.38a5.415,5.415,0,0,0,3.16,1.083c1.219.091,9.527,0,9.527,0a1.885,1.885,0,0,1,1.445,2.168c-.135,1.9,0,11.559,0,11.559h2.3v-12.417a1.39,1.39,0,0,1,1.264-1.31c1.219-.137,8.083-.18,10.34-.633a18.326,18.326,0,0,0,7.721-4.831c1.174-1.58.948-2.348-.677-2.348s-5.87-.181-5.87-.181v-17.7s-.226-1.671,1.355-1.716,7.722.137,10.069-.316,6.141-3.161,7.315-4.56,1.9-3.026,0-3.07-24.474-.227-24.474-.227l.768-10.881s.091-1.717-.768-2.394a3.954,3.954,0,0,0-2.574-.768c-.767,0-12.372.181-12.372.181S2487.6,4694.007,2487.6,4694.685Z" transform="translate(-62.111 1601.587)" fill="#fff"/>
    <path id="빼기_110" data-name="빼기 110" d="M62.5,125A62.516,62.516,0,0,1,38.172,4.912,62.516,62.516,0,0,1,86.828,120.088,62.108,62.108,0,0,1,62.5,125Zm0-119.486A56.985,56.985,0,1,0,119.484,62.5,57.05,57.05,0,0,0,62.5,5.514Z" transform="translate(2346 6240)" fill="#fff"/>
    <text id="_01" data-name="01" transform="translate(2391 6303)" fill="#fff" font-size="44" font-family="NeoSans-Bold, NeoSans" font-weight="700" letter-spacing="-0.05em"><tspan x="-27" y="0">01</tspan></text>
    <text id="선자령풍차길" transform="translate(2389 6316)" fill="#fff" font-size="8" font-family="MalgunGothicBold, Malgun Gothic" letter-spacing="-0.05em"><tspan x="-23" y="0">선자령풍차길</tspan></text>
  </g>
</svg>
